<mxfile host="app.diagrams.net" agent="Mozilla/5.0 (Windows NT 10.0; Win64; x64) AppleWebKit/537.36 (KHTML, like Gecko) Chrome/131.0.0.0 Safari/537.36" version="26.0.6" pages="5">
  <diagram name="Detect" id="BsUbyI7AThDIFD5I6tJV">
    <mxGraphModel dx="1750" dy="928" grid="1" gridSize="10" guides="1" tooltips="1" connect="1" arrows="1" fold="1" page="1" pageScale="1" pageWidth="827" pageHeight="1169" math="0" shadow="0">
      <root>
        <mxCell id="0" />
        <mxCell id="1" parent="0" />
        <mxCell id="pMD6ol31KG3Vpz0NEzo_-1" value="&lt;div&gt;MD8&lt;/div&gt;" style="whiteSpace=wrap;html=1;aspect=fixed;fillColor=#E6E6E6;rotation=319;" vertex="1" parent="1">
          <mxGeometry x="920" y="680" width="30" height="30" as="geometry" />
        </mxCell>
        <mxCell id="pMD6ol31KG3Vpz0NEzo_-2" value="&lt;div&gt;MD6&lt;/div&gt;" style="whiteSpace=wrap;html=1;aspect=fixed;fillColor=#E6E6E6;rotation=319;" vertex="1" parent="1">
          <mxGeometry x="590" y="414" width="30" height="30" as="geometry" />
        </mxCell>
        <mxCell id="pMD6ol31KG3Vpz0NEzo_-3" value="&lt;div&gt;MD5&lt;/div&gt;" style="whiteSpace=wrap;html=1;aspect=fixed;fillColor=#E6E6E6;rotation=319;" vertex="1" parent="1">
          <mxGeometry x="400" y="414" width="30" height="30" as="geometry" />
        </mxCell>
        <mxCell id="pMD6ol31KG3Vpz0NEzo_-4" value="&lt;div&gt;MD2&lt;/div&gt;" style="whiteSpace=wrap;html=1;aspect=fixed;fillColor=#E6E6E6;rotation=319;" vertex="1" parent="1">
          <mxGeometry x="400" y="280" width="30" height="30" as="geometry" />
        </mxCell>
        <mxCell id="pMD6ol31KG3Vpz0NEzo_-5" value="MD1" style="whiteSpace=wrap;html=1;aspect=fixed;fillColor=#E6E6E6;rotation=319;" vertex="1" parent="1">
          <mxGeometry x="400" y="123" width="30" height="30" as="geometry" />
        </mxCell>
        <mxCell id="pMD6ol31KG3Vpz0NEzo_-6" value="Start" style="ellipse;whiteSpace=wrap;html=1;" vertex="1" parent="1">
          <mxGeometry x="94" y="58" width="120" height="40" as="geometry" />
        </mxCell>
        <mxCell id="pMD6ol31KG3Vpz0NEzo_-7" style="edgeStyle=orthogonalEdgeStyle;rounded=0;orthogonalLoop=1;jettySize=auto;html=1;exitX=0.5;exitY=1;exitDx=0;exitDy=0;" edge="1" parent="1" source="pMD6ol31KG3Vpz0NEzo_-6" target="pMD6ol31KG3Vpz0NEzo_-6">
          <mxGeometry relative="1" as="geometry" />
        </mxCell>
        <mxCell id="pMD6ol31KG3Vpz0NEzo_-8" value="" style="edgeStyle=orthogonalEdgeStyle;rounded=0;orthogonalLoop=1;jettySize=auto;html=1;entryX=0;entryY=0.5;entryDx=0;entryDy=0;" edge="1" parent="1" source="pMD6ol31KG3Vpz0NEzo_-9" target="pMD6ol31KG3Vpz0NEzo_-33">
          <mxGeometry relative="1" as="geometry">
            <mxPoint x="402" y="178" as="targetPoint" />
          </mxGeometry>
        </mxCell>
        <mxCell id="pMD6ol31KG3Vpz0NEzo_-9" value="Alerts" style="shape=parallelogram;perimeter=parallelogramPerimeter;whiteSpace=wrap;html=1;fixedSize=1;" vertex="1" parent="1">
          <mxGeometry x="218" y="148" width="120" height="60" as="geometry" />
        </mxCell>
        <mxCell id="pMD6ol31KG3Vpz0NEzo_-10" value="" style="edgeStyle=orthogonalEdgeStyle;rounded=0;orthogonalLoop=1;jettySize=auto;html=1;entryX=1;entryY=0.5;entryDx=0;entryDy=0;" edge="1" parent="1" source="pMD6ol31KG3Vpz0NEzo_-11" target="pMD6ol31KG3Vpz0NEzo_-33">
          <mxGeometry relative="1" as="geometry">
            <mxPoint x="502" y="178" as="targetPoint" />
          </mxGeometry>
        </mxCell>
        <mxCell id="pMD6ol31KG3Vpz0NEzo_-11" value="Notifications" style="shape=parallelogram;perimeter=parallelogramPerimeter;whiteSpace=wrap;html=1;fixedSize=1;" vertex="1" parent="1">
          <mxGeometry x="582.5" y="148" width="120" height="60" as="geometry" />
        </mxCell>
        <mxCell id="pMD6ol31KG3Vpz0NEzo_-12" value="" style="endArrow=classic;html=1;entryX=0.5;entryY=0;entryDx=0;entryDy=0;exitX=1;exitY=0.5;exitDx=0;exitDy=0;rounded=0;" edge="1" parent="1" source="pMD6ol31KG3Vpz0NEzo_-6">
          <mxGeometry width="50" height="50" relative="1" as="geometry">
            <mxPoint x="184" y="158" as="sourcePoint" />
            <mxPoint x="452" y="138" as="targetPoint" />
            <Array as="points">
              <mxPoint x="452" y="78" />
            </Array>
          </mxGeometry>
        </mxCell>
        <mxCell id="pMD6ol31KG3Vpz0NEzo_-13" value="" style="edgeStyle=orthogonalEdgeStyle;rounded=0;orthogonalLoop=1;jettySize=auto;html=1;entryX=0;entryY=0.5;entryDx=0;entryDy=0;" edge="1" parent="1" source="pMD6ol31KG3Vpz0NEzo_-14" target="pMD6ol31KG3Vpz0NEzo_-34">
          <mxGeometry relative="1" as="geometry">
            <mxPoint x="397.5" y="335" as="targetPoint" />
          </mxGeometry>
        </mxCell>
        <mxCell id="pMD6ol31KG3Vpz0NEzo_-14" value="Common" style="shape=parallelogram;perimeter=parallelogramPerimeter;whiteSpace=wrap;html=1;fixedSize=1;" vertex="1" parent="1">
          <mxGeometry x="203.5" y="305" width="120" height="60" as="geometry" />
        </mxCell>
        <mxCell id="pMD6ol31KG3Vpz0NEzo_-15" value="" style="edgeStyle=orthogonalEdgeStyle;rounded=0;orthogonalLoop=1;jettySize=auto;html=1;" edge="1" parent="1" source="pMD6ol31KG3Vpz0NEzo_-16">
          <mxGeometry relative="1" as="geometry">
            <mxPoint x="520" y="335" as="targetPoint" />
          </mxGeometry>
        </mxCell>
        <mxCell id="pMD6ol31KG3Vpz0NEzo_-16" value="Org&lt;br&gt;&lt;div&gt;Specific&lt;/div&gt;" style="shape=parallelogram;perimeter=parallelogramPerimeter;whiteSpace=wrap;html=1;fixedSize=1;" vertex="1" parent="1">
          <mxGeometry x="578" y="305" width="120" height="60" as="geometry" />
        </mxCell>
        <mxCell id="pMD6ol31KG3Vpz0NEzo_-17" value="" style="edgeStyle=orthogonalEdgeStyle;rounded=0;orthogonalLoop=1;jettySize=auto;html=1;" edge="1" parent="1" source="pMD6ol31KG3Vpz0NEzo_-18" target="pMD6ol31KG3Vpz0NEzo_-20">
          <mxGeometry relative="1" as="geometry" />
        </mxCell>
        <mxCell id="pMD6ol31KG3Vpz0NEzo_-18" value="Data Collection" style="shape=parallelogram;perimeter=parallelogramPerimeter;whiteSpace=wrap;html=1;fixedSize=1;" vertex="1" parent="1">
          <mxGeometry x="41" y="440" width="120" height="60" as="geometry" />
        </mxCell>
        <mxCell id="pMD6ol31KG3Vpz0NEzo_-19" value="" style="edgeStyle=orthogonalEdgeStyle;rounded=0;orthogonalLoop=1;jettySize=auto;html=1;" edge="1" parent="1" source="pMD6ol31KG3Vpz0NEzo_-20" target="pMD6ol31KG3Vpz0NEzo_-38">
          <mxGeometry relative="1" as="geometry" />
        </mxCell>
        <mxCell id="pMD6ol31KG3Vpz0NEzo_-20" value="Categorize" style="whiteSpace=wrap;html=1;" vertex="1" parent="1">
          <mxGeometry x="214" y="440" width="120" height="60" as="geometry" />
        </mxCell>
        <mxCell id="pMD6ol31KG3Vpz0NEzo_-21" value="" style="edgeStyle=orthogonalEdgeStyle;rounded=0;orthogonalLoop=1;jettySize=auto;html=1;" edge="1" parent="1" source="pMD6ol31KG3Vpz0NEzo_-22" target="pMD6ol31KG3Vpz0NEzo_-49">
          <mxGeometry relative="1" as="geometry">
            <mxPoint x="940.5" y="470" as="targetPoint" />
            <Array as="points">
              <mxPoint x="1070" y="470" />
              <mxPoint x="1070" y="660" />
              <mxPoint x="975" y="660" />
            </Array>
          </mxGeometry>
        </mxCell>
        <mxCell id="pMD6ol31KG3Vpz0NEzo_-22" value="Triage" style="whiteSpace=wrap;html=1;" vertex="1" parent="1">
          <mxGeometry x="760" y="440" width="120" height="60" as="geometry" />
        </mxCell>
        <mxCell id="pMD6ol31KG3Vpz0NEzo_-23" value="&lt;h1&gt;Malware - Detect&lt;br&gt;&lt;/h1&gt;" style="text;html=1;strokeColor=none;fillColor=none;spacing=5;spacingTop=-20;whiteSpace=wrap;overflow=hidden;rounded=0;" vertex="1" parent="1">
          <mxGeometry x="10" y="10" width="260" height="40" as="geometry" />
        </mxCell>
        <mxCell id="pMD6ol31KG3Vpz0NEzo_-24" value="" style="endArrow=classic;html=1;exitX=0.5;exitY=1;exitDx=0;exitDy=0;entryX=0.558;entryY=-0.017;entryDx=0;entryDy=0;entryPerimeter=0;rounded=0;" edge="1" parent="1" source="pMD6ol31KG3Vpz0NEzo_-34" target="pMD6ol31KG3Vpz0NEzo_-18">
          <mxGeometry width="50" height="50" relative="1" as="geometry">
            <mxPoint x="447.5" y="375" as="sourcePoint" />
            <mxPoint x="489.5" y="365" as="targetPoint" />
            <Array as="points">
              <mxPoint x="455" y="400" />
              <mxPoint x="256" y="400" />
              <mxPoint x="108" y="400" />
            </Array>
          </mxGeometry>
        </mxCell>
        <mxCell id="pMD6ol31KG3Vpz0NEzo_-25" value="&lt;div align=&quot;left&quot;&gt;&lt;ul&gt;&lt;li&gt;Tickets&lt;/li&gt;&lt;li&gt;&lt;span style=&quot;text-align: center&quot;&gt;SIEM&lt;/span&gt;&lt;/li&gt;&lt;li&gt;&lt;span style=&quot;text-align: center&quot;&gt;AV / EDR Alerts&lt;/span&gt;&lt;br&gt;&lt;/li&gt;&lt;li&gt;&lt;span style=&quot;text-align: center&quot;&gt;Reports (DNS, Web Proxy)&lt;/span&gt;&lt;br&gt;&lt;/li&gt;&lt;/ul&gt;&lt;/div&gt;" style="text;html=1;resizable=0;autosize=1;align=center;verticalAlign=middle;points=[];fillColor=none;strokeColor=none;rounded=0;" vertex="1" parent="1">
          <mxGeometry x="11" y="133" width="200" height="90" as="geometry" />
        </mxCell>
        <mxCell id="pMD6ol31KG3Vpz0NEzo_-26" value="&lt;div align=&quot;left&quot;&gt;&lt;ul&gt;&lt;li&gt;From users&lt;br&gt;&lt;/li&gt;&lt;li&gt;From recipients&lt;br&gt;&lt;/li&gt;&lt;li&gt;third party&lt;br&gt;&lt;/li&gt;&lt;li&gt;ISP &lt;br&gt;&lt;/li&gt;&lt;li&gt;Mail provider&lt;/li&gt;&lt;li&gt;Computer is&lt;/li&gt;&lt;ul&gt;&lt;li&gt;Slow&lt;/li&gt;&lt;li&gt;Crash unexpectedly&lt;/li&gt;&lt;/ul&gt;&lt;/ul&gt;&lt;/div&gt;" style="text;html=1;resizable=0;autosize=1;align=center;verticalAlign=middle;points=[];fillColor=none;strokeColor=none;rounded=0;" vertex="1" parent="1">
          <mxGeometry x="680" y="128" width="200" height="140" as="geometry" />
        </mxCell>
        <mxCell id="pMD6ol31KG3Vpz0NEzo_-27" value="&lt;div align=&quot;left&quot;&gt;&lt;ul&gt;&lt;li&gt;Credential theft&lt;br&gt;&lt;/li&gt;&lt;li&gt;Malware delivery&lt;br&gt;&lt;/li&gt;&lt;li&gt;Criminal activities&lt;br&gt;&lt;/li&gt;&lt;ul&gt;&lt;li&gt;Financial losses &lt;br&gt;&lt;/li&gt;&lt;li&gt;Blackmail / Ransom&lt;br&gt;&lt;/li&gt;&lt;/ul&gt;&lt;/ul&gt;&lt;/div&gt;" style="text;html=1;resizable=0;autosize=1;align=center;verticalAlign=middle;points=[];fillColor=none;strokeColor=none;rounded=0;" vertex="1" parent="1">
          <mxGeometry x="1" y="285" width="200" height="100" as="geometry" />
        </mxCell>
        <mxCell id="pMD6ol31KG3Vpz0NEzo_-28" value="&lt;div align=&quot;left&quot;&gt;&lt;ul&gt;&lt;li&gt;Reputation damage&lt;br&gt;&lt;/li&gt;&lt;li&gt;Financial losses&lt;/li&gt;&lt;ul&gt;&lt;li&gt;Lost contract/renewal&lt;/li&gt;&lt;li&gt;Lower bid to our clients&lt;br&gt;&lt;/li&gt;&lt;li&gt;Fines (Regulation)&lt;/li&gt;&lt;/ul&gt;&lt;/ul&gt;&lt;/div&gt;" style="text;html=1;resizable=0;autosize=1;align=center;verticalAlign=middle;points=[];fillColor=none;strokeColor=none;rounded=0;" vertex="1" parent="1">
          <mxGeometry x="680" y="290" width="220" height="100" as="geometry" />
        </mxCell>
        <mxCell id="pMD6ol31KG3Vpz0NEzo_-29" value="&lt;div align=&quot;left&quot;&gt;&lt;ul&gt;&lt;li&gt;Determine type&lt;/li&gt;&lt;ul&gt;&lt;li&gt;Ransomware&lt;/li&gt;&lt;li&gt;C2&lt;/li&gt;&lt;li&gt;Exfil&lt;/li&gt;&lt;li&gt;Worm / Lateral movement&lt;/li&gt;&lt;li&gt;Credential Theft&lt;/li&gt;&lt;li&gt;Banking &lt;br&gt;&lt;/li&gt;&lt;li&gt;Trojan / RAT&lt;/li&gt;&lt;li&gt;Adware / PUP&lt;br&gt;&lt;/li&gt;&lt;li&gt;etc.&lt;br&gt;&lt;/li&gt;&lt;/ul&gt;&lt;br&gt;&lt;/ul&gt;&lt;/div&gt;" style="text;html=1;resizable=0;autosize=1;align=center;verticalAlign=middle;points=[];fillColor=none;strokeColor=none;rounded=0;" vertex="1" parent="1">
          <mxGeometry x="180" y="499" width="230" height="180" as="geometry" />
        </mxCell>
        <mxCell id="pMD6ol31KG3Vpz0NEzo_-30" value="&lt;div align=&quot;left&quot;&gt;&lt;ul&gt;&lt;li&gt;Determine Impact&lt;/li&gt;&lt;ul&gt;&lt;li&gt;Is the malware destroying things&lt;/li&gt;&lt;li&gt;Is the malware proliferating (infecting other hosts)&lt;br&gt;&lt;/li&gt;&lt;li&gt;Financial impact&lt;/li&gt;&lt;li&gt;BSoD&lt;/li&gt;&lt;li&gt;etc.&lt;br&gt;&lt;/li&gt;&lt;/ul&gt;&lt;li&gt;Determine Scope&lt;br&gt;&lt;/li&gt;&lt;ul&gt;&lt;li&gt;Nb of hosts received the files (hash, name)&lt;br&gt;&lt;/li&gt;&lt;li&gt;Nb of hosts that attempt to connect to the URLs&lt;/li&gt;&lt;li&gt;Nb of hosts with registry keys&lt;/li&gt;&lt;li&gt;Other IOC found&lt;/li&gt;&lt;/ul&gt;&lt;li&gt;Send Communication&lt;/li&gt;&lt;li&gt;Determine if False Positive&lt;br&gt;&lt;/li&gt;&lt;/ul&gt;&lt;/div&gt;" style="text;html=1;resizable=0;autosize=1;align=center;verticalAlign=middle;points=[];fillColor=none;strokeColor=none;rounded=0;" vertex="1" parent="1">
          <mxGeometry x="698" y="500" width="360" height="210" as="geometry" />
        </mxCell>
        <mxCell id="pMD6ol31KG3Vpz0NEzo_-31" value="&lt;div align=&quot;left&quot;&gt;&lt;ul&gt;&lt;li&gt;File&lt;/li&gt;&lt;ul&gt;&lt;li&gt;Hash&lt;/li&gt;&lt;li&gt;Reputation&lt;/li&gt;&lt;li&gt;Publisher&lt;/li&gt;&lt;li&gt;Behavior&lt;br&gt;&lt;/li&gt;&lt;/ul&gt;&lt;li&gt;Domain&lt;/li&gt;&lt;ul&gt;&lt;li&gt;Reputation&lt;/li&gt;&lt;li&gt;Registrar&lt;/li&gt;&lt;li&gt;Owner&lt;/li&gt;&lt;li&gt;IP&lt;/li&gt;&lt;li&gt;Multi stage/Redirect&lt;/li&gt;&lt;li&gt;Technologies&lt;/li&gt;&lt;ul&gt;&lt;li&gt;WordPress&lt;/li&gt;&lt;li&gt;Joomla&lt;/li&gt;&lt;li&gt;Custom&lt;br&gt;&lt;/li&gt;&lt;/ul&gt;&lt;/ul&gt;&lt;li&gt;IP&lt;/li&gt;&lt;ul&gt;&lt;li&gt;Reputation&lt;/li&gt;&lt;li&gt;Other domains (vhosts)&lt;/li&gt;&lt;/ul&gt;&lt;br&gt;&lt;/ul&gt;&lt;/div&gt;" style="text;html=1;resizable=0;autosize=1;align=center;verticalAlign=middle;points=[];fillColor=none;strokeColor=none;rounded=0;" vertex="1" parent="1">
          <mxGeometry x="1" y="499" width="220" height="300" as="geometry" />
        </mxCell>
        <mxCell id="pMD6ol31KG3Vpz0NEzo_-32" value="" style="edgeStyle=orthogonalEdgeStyle;rounded=0;orthogonalLoop=1;jettySize=auto;html=1;" edge="1" parent="1" source="pMD6ol31KG3Vpz0NEzo_-33" target="pMD6ol31KG3Vpz0NEzo_-34">
          <mxGeometry relative="1" as="geometry" />
        </mxCell>
        <mxCell id="pMD6ol31KG3Vpz0NEzo_-33" value="Identify &lt;br&gt;&lt;div&gt;Threat &lt;br&gt;&lt;/div&gt;&lt;div&gt;Indicators&lt;/div&gt;" style="rhombus;whiteSpace=wrap;html=1;shadow=0;fontFamily=Helvetica;fontSize=12;align=center;strokeWidth=1;spacing=6;spacingTop=-4;" vertex="1" parent="1">
          <mxGeometry x="389.5" y="123" width="130" height="110" as="geometry" />
        </mxCell>
        <mxCell id="pMD6ol31KG3Vpz0NEzo_-34" value="Identify &lt;br&gt;&lt;div&gt;Risk&lt;br&gt;&lt;/div&gt;&lt;div&gt;Factors&lt;/div&gt;" style="rhombus;whiteSpace=wrap;html=1;shadow=0;fontFamily=Helvetica;fontSize=12;align=center;strokeWidth=1;spacing=6;spacingTop=-4;" vertex="1" parent="1">
          <mxGeometry x="389.5" y="280" width="130" height="110" as="geometry" />
        </mxCell>
        <mxCell id="pMD6ol31KG3Vpz0NEzo_-35" value="" style="edgeStyle=orthogonalEdgeStyle;rounded=0;orthogonalLoop=1;jettySize=auto;html=1;" edge="1" parent="1" source="pMD6ol31KG3Vpz0NEzo_-38" target="pMD6ol31KG3Vpz0NEzo_-41">
          <mxGeometry relative="1" as="geometry" />
        </mxCell>
        <mxCell id="pMD6ol31KG3Vpz0NEzo_-36" value="No" style="edgeLabel;html=1;align=center;verticalAlign=middle;resizable=0;points=[];" vertex="1" connectable="0" parent="pMD6ol31KG3Vpz0NEzo_-35">
          <mxGeometry x="0.0476" y="6" relative="1" as="geometry">
            <mxPoint x="-6" y="7" as="offset" />
          </mxGeometry>
        </mxCell>
        <mxCell id="pMD6ol31KG3Vpz0NEzo_-37" style="edgeStyle=orthogonalEdgeStyle;rounded=0;orthogonalLoop=1;jettySize=auto;html=1;entryX=0;entryY=0.5;entryDx=0;entryDy=0;" edge="1" parent="1" source="pMD6ol31KG3Vpz0NEzo_-38" target="pMD6ol31KG3Vpz0NEzo_-43">
          <mxGeometry relative="1" as="geometry">
            <Array as="points">
              <mxPoint x="461" y="760" />
            </Array>
          </mxGeometry>
        </mxCell>
        <mxCell id="pMD6ol31KG3Vpz0NEzo_-38" value="&lt;div&gt;Is it a &lt;br&gt;&lt;/div&gt;&lt;div&gt;Ransomware&lt;br&gt;&lt;/div&gt;" style="rhombus;whiteSpace=wrap;html=1;shadow=0;fontFamily=Helvetica;fontSize=12;align=center;strokeWidth=1;spacing=6;spacingTop=-4;" vertex="1" parent="1">
          <mxGeometry x="389.5" y="415" width="130" height="110" as="geometry" />
        </mxCell>
        <mxCell id="pMD6ol31KG3Vpz0NEzo_-39" value="No" style="edgeStyle=orthogonalEdgeStyle;rounded=0;orthogonalLoop=1;jettySize=auto;html=1;exitX=1;exitY=0.5;exitDx=0;exitDy=0;" edge="1" parent="1" source="pMD6ol31KG3Vpz0NEzo_-41" target="pMD6ol31KG3Vpz0NEzo_-22">
          <mxGeometry relative="1" as="geometry" />
        </mxCell>
        <mxCell id="pMD6ol31KG3Vpz0NEzo_-40" style="edgeStyle=orthogonalEdgeStyle;rounded=0;orthogonalLoop=1;jettySize=auto;html=1;exitX=0.5;exitY=1;exitDx=0;exitDy=0;entryX=0;entryY=0.5;entryDx=0;entryDy=0;" edge="1" parent="1" source="pMD6ol31KG3Vpz0NEzo_-41" target="pMD6ol31KG3Vpz0NEzo_-42">
          <mxGeometry relative="1" as="geometry">
            <Array as="points">
              <mxPoint x="643" y="760" />
            </Array>
          </mxGeometry>
        </mxCell>
        <mxCell id="pMD6ol31KG3Vpz0NEzo_-41" value="&lt;div&gt;Is it a&lt;/div&gt;&lt;div&gt;Worm&lt;br&gt;&lt;/div&gt;" style="rhombus;whiteSpace=wrap;html=1;shadow=0;fontFamily=Helvetica;fontSize=12;align=center;strokeWidth=1;spacing=6;spacingTop=-4;" vertex="1" parent="1">
          <mxGeometry x="578" y="414" width="130" height="110" as="geometry" />
        </mxCell>
        <mxCell id="pMD6ol31KG3Vpz0NEzo_-42" value="&lt;div&gt;Worm&lt;/div&gt;&lt;div&gt;Playbook&lt;br&gt;&lt;/div&gt;" style="shape=step;perimeter=stepPerimeter;whiteSpace=wrap;html=1;fixedSize=1;" vertex="1" parent="1">
          <mxGeometry x="702.5" y="740" width="120" height="40" as="geometry" />
        </mxCell>
        <mxCell id="pMD6ol31KG3Vpz0NEzo_-43" value="&lt;div&gt;Ransomware&lt;/div&gt;&lt;div&gt;Playbook&lt;br&gt;&lt;/div&gt;" style="shape=step;perimeter=stepPerimeter;whiteSpace=wrap;html=1;fixedSize=1;" vertex="1" parent="1">
          <mxGeometry x="500" y="740" width="120" height="40" as="geometry" />
        </mxCell>
        <mxCell id="pMD6ol31KG3Vpz0NEzo_-44" value="Next&lt;br&gt;(Analyze)" style="shape=step;perimeter=stepPerimeter;whiteSpace=wrap;html=1;fixedSize=1;" vertex="1" parent="1">
          <mxGeometry x="1157" y="680" width="120" height="40" as="geometry" />
        </mxCell>
        <mxCell id="pMD6ol31KG3Vpz0NEzo_-45" style="edgeStyle=orthogonalEdgeStyle;rounded=0;orthogonalLoop=1;jettySize=auto;html=1;exitX=1;exitY=0.5;exitDx=0;exitDy=0;entryX=0;entryY=0.5;entryDx=0;entryDy=0;" edge="1" parent="1" source="pMD6ol31KG3Vpz0NEzo_-49" target="pMD6ol31KG3Vpz0NEzo_-44">
          <mxGeometry relative="1" as="geometry" />
        </mxCell>
        <mxCell id="pMD6ol31KG3Vpz0NEzo_-46" value="No" style="edgeLabel;html=1;align=center;verticalAlign=middle;resizable=0;points=[];" vertex="1" connectable="0" parent="pMD6ol31KG3Vpz0NEzo_-45">
          <mxGeometry x="-0.7326" y="-2" relative="1" as="geometry">
            <mxPoint as="offset" />
          </mxGeometry>
        </mxCell>
        <mxCell id="pMD6ol31KG3Vpz0NEzo_-47" style="edgeStyle=orthogonalEdgeStyle;rounded=0;orthogonalLoop=1;jettySize=auto;html=1;exitX=0.5;exitY=1;exitDx=0;exitDy=0;entryX=0;entryY=0.5;entryDx=0;entryDy=0;" edge="1" parent="1" source="pMD6ol31KG3Vpz0NEzo_-49" target="pMD6ol31KG3Vpz0NEzo_-50">
          <mxGeometry relative="1" as="geometry" />
        </mxCell>
        <mxCell id="pMD6ol31KG3Vpz0NEzo_-48" value="Yes" style="edgeLabel;html=1;align=center;verticalAlign=middle;resizable=0;points=[];" vertex="1" connectable="0" parent="pMD6ol31KG3Vpz0NEzo_-47">
          <mxGeometry x="-0.3663" y="-2" relative="1" as="geometry">
            <mxPoint as="offset" />
          </mxGeometry>
        </mxCell>
        <mxCell id="pMD6ol31KG3Vpz0NEzo_-49" value="&lt;div&gt;False &lt;br&gt;&lt;/div&gt;&lt;div&gt;Positive&lt;br&gt;&lt;/div&gt;" style="rhombus;whiteSpace=wrap;html=1;shadow=0;fontFamily=Helvetica;fontSize=12;align=center;strokeWidth=1;spacing=6;spacingTop=-4;" vertex="1" parent="1">
          <mxGeometry x="910" y="680" width="130" height="110" as="geometry" />
        </mxCell>
        <mxCell id="pMD6ol31KG3Vpz0NEzo_-50" value="&lt;div&gt;Stop&lt;/div&gt;" style="ellipse;whiteSpace=wrap;html=1;" vertex="1" parent="1">
          <mxGeometry x="1157" y="770" width="120" height="40" as="geometry" />
        </mxCell>
        <mxCell id="pMD6ol31KG3Vpz0NEzo_-51" value="MD4" style="whiteSpace=wrap;html=1;aspect=fixed;fillColor=#E6E6E6;rotation=0;" vertex="1" parent="1">
          <mxGeometry x="214" y="410" width="30" height="30" as="geometry" />
        </mxCell>
        <mxCell id="pMD6ol31KG3Vpz0NEzo_-52" value="MD7" style="whiteSpace=wrap;html=1;aspect=fixed;fillColor=#E6E6E6;rotation=0;" vertex="1" parent="1">
          <mxGeometry x="760" y="410" width="30" height="30" as="geometry" />
        </mxCell>
        <mxCell id="pMD6ol31KG3Vpz0NEzo_-53" value="MD3" style="whiteSpace=wrap;html=1;aspect=fixed;fillColor=#E6E6E6;rotation=0;" vertex="1" parent="1">
          <mxGeometry x="61" y="410" width="30" height="30" as="geometry" />
        </mxCell>
      </root>
    </mxGraphModel>
  </diagram>
  <diagram name="Analyze" id="4QOcrMZNPPUD1dKrscmW">
    <mxGraphModel dx="1186" dy="767" grid="1" gridSize="10" guides="1" tooltips="1" connect="1" arrows="1" fold="1" page="1" pageScale="1" pageWidth="1169" pageHeight="827" math="0" shadow="0">
      <root>
        <mxCell id="AIxGSCiM-Fmt9LvVJHG_-0" />
        <mxCell id="AIxGSCiM-Fmt9LvVJHG_-1" parent="AIxGSCiM-Fmt9LvVJHG_-0" />
        <mxCell id="XJrqP7T2VFvas0zgwgeJ-5" value="&lt;div style=&quot;font-size: 10px;&quot;&gt;MA12&lt;/div&gt;" style="whiteSpace=wrap;html=1;aspect=fixed;fillColor=#E6E6E6;rotation=319;fontSize=10;" parent="AIxGSCiM-Fmt9LvVJHG_-1" vertex="1">
          <mxGeometry x="140" y="725" width="30" height="30" as="geometry" />
        </mxCell>
        <mxCell id="XJrqP7T2VFvas0zgwgeJ-0" value="&lt;div style=&quot;font-size: 12px;&quot;&gt;MA2&lt;/div&gt;" style="whiteSpace=wrap;html=1;aspect=fixed;fillColor=#E6E6E6;rotation=319;fontSize=12;" parent="AIxGSCiM-Fmt9LvVJHG_-1" vertex="1">
          <mxGeometry x="323" y="40" width="30" height="30" as="geometry" />
        </mxCell>
        <mxCell id="XJrqP7T2VFvas0zgwgeJ-4" value="&lt;div style=&quot;font-size: 10px;&quot;&gt;MA11&lt;/div&gt;" style="whiteSpace=wrap;html=1;aspect=fixed;fillColor=#E6E6E6;rotation=319;fontSize=10;" parent="AIxGSCiM-Fmt9LvVJHG_-1" vertex="1">
          <mxGeometry x="310" y="557" width="30" height="30" as="geometry" />
        </mxCell>
        <mxCell id="XJrqP7T2VFvas0zgwgeJ-3" value="&lt;div style=&quot;font-size: 12px;&quot;&gt;MA9&lt;/div&gt;" style="whiteSpace=wrap;html=1;aspect=fixed;fillColor=#E6E6E6;rotation=319;fontSize=12;" parent="AIxGSCiM-Fmt9LvVJHG_-1" vertex="1">
          <mxGeometry x="500" y="354" width="30" height="30" as="geometry" />
        </mxCell>
        <mxCell id="AIxGSCiM-Fmt9LvVJHG_-2" style="edgeStyle=orthogonalEdgeStyle;rounded=0;orthogonalLoop=1;jettySize=auto;html=1;exitX=0.5;exitY=1;exitDx=0;exitDy=0;" parent="AIxGSCiM-Fmt9LvVJHG_-1" edge="1">
          <mxGeometry relative="1" as="geometry">
            <mxPoint x="80" y="100" as="sourcePoint" />
            <mxPoint x="80" y="100" as="targetPoint" />
          </mxGeometry>
        </mxCell>
        <mxCell id="JmSlJOvxeKhEs41dbQwB-3" style="edgeStyle=orthogonalEdgeStyle;rounded=0;orthogonalLoop=1;jettySize=auto;html=1;exitX=0;exitY=0.5;exitDx=0;exitDy=0;entryX=1;entryY=0.5;entryDx=0;entryDy=0;" parent="AIxGSCiM-Fmt9LvVJHG_-1" source="AIxGSCiM-Fmt9LvVJHG_-4" target="AIxGSCiM-Fmt9LvVJHG_-25" edge="1">
          <mxGeometry relative="1" as="geometry" />
        </mxCell>
        <mxCell id="JmSlJOvxeKhEs41dbQwB-6" value="No" style="edgeLabel;html=1;align=center;verticalAlign=middle;resizable=0;points=[];" parent="JmSlJOvxeKhEs41dbQwB-3" vertex="1" connectable="0">
          <mxGeometry x="-0.1453" y="-1" relative="1" as="geometry">
            <mxPoint as="offset" />
          </mxGeometry>
        </mxCell>
        <mxCell id="JmSlJOvxeKhEs41dbQwB-7" style="edgeStyle=orthogonalEdgeStyle;rounded=0;orthogonalLoop=1;jettySize=auto;html=1;exitX=0.5;exitY=1;exitDx=0;exitDy=0;entryX=1;entryY=0.5;entryDx=0;entryDy=0;" parent="AIxGSCiM-Fmt9LvVJHG_-1" source="AIxGSCiM-Fmt9LvVJHG_-4" target="9RH_LA59GppCGWDuqVye-3" edge="1">
          <mxGeometry relative="1" as="geometry" />
        </mxCell>
        <mxCell id="JmSlJOvxeKhEs41dbQwB-8" value="Yes" style="edgeLabel;html=1;align=center;verticalAlign=middle;resizable=0;points=[];" parent="JmSlJOvxeKhEs41dbQwB-7" vertex="1" connectable="0">
          <mxGeometry x="-0.8003" y="1" relative="1" as="geometry">
            <mxPoint as="offset" />
          </mxGeometry>
        </mxCell>
        <mxCell id="AIxGSCiM-Fmt9LvVJHG_-4" value="&lt;div&gt;All Affected &lt;br&gt;&lt;/div&gt;&lt;div&gt;Enpoints &lt;br&gt;&lt;/div&gt;&lt;div&gt;ID&#39;ed&lt;/div&gt;" style="rhombus;whiteSpace=wrap;html=1;shadow=0;fontFamily=Helvetica;fontSize=12;align=center;strokeWidth=1;spacing=6;spacingTop=-4;" parent="AIxGSCiM-Fmt9LvVJHG_-1" vertex="1">
          <mxGeometry x="490" y="354" width="130" height="110" as="geometry" />
        </mxCell>
        <mxCell id="AIxGSCiM-Fmt9LvVJHG_-5" value="" style="endArrow=classic;html=1;entryX=0.5;entryY=0;entryDx=0;entryDy=0;exitX=1;exitY=0.5;exitDx=0;exitDy=0;rounded=0;" parent="AIxGSCiM-Fmt9LvVJHG_-1" target="AIxGSCiM-Fmt9LvVJHG_-11" edge="1">
          <mxGeometry width="50" height="50" relative="1" as="geometry">
            <mxPoint x="140" y="80" as="sourcePoint" />
            <mxPoint x="160" y="110" as="targetPoint" />
            <Array as="points">
              <mxPoint x="200" y="80" />
            </Array>
          </mxGeometry>
        </mxCell>
        <mxCell id="AIxGSCiM-Fmt9LvVJHG_-8" value="&lt;h1&gt;Malware - Analyze&lt;br&gt;&lt;/h1&gt;" style="text;html=1;strokeColor=none;fillColor=none;spacing=5;spacingTop=-20;whiteSpace=wrap;overflow=hidden;rounded=0;" parent="AIxGSCiM-Fmt9LvVJHG_-1" vertex="1">
          <mxGeometry x="10" y="10" width="260" height="40" as="geometry" />
        </mxCell>
        <mxCell id="AIxGSCiM-Fmt9LvVJHG_-9" value="&lt;div&gt;Next&lt;/div&gt;(Contain)" style="shape=step;perimeter=stepPerimeter;whiteSpace=wrap;html=1;fixedSize=1;" parent="AIxGSCiM-Fmt9LvVJHG_-1" vertex="1">
          <mxGeometry x="1015" y="940" width="120" height="40" as="geometry" />
        </mxCell>
        <mxCell id="AIxGSCiM-Fmt9LvVJHG_-10" value="&lt;div&gt;Previous&lt;/div&gt;(Detect)" style="shape=step;perimeter=stepPerimeter;whiteSpace=wrap;html=1;fixedSize=1;" parent="AIxGSCiM-Fmt9LvVJHG_-1" vertex="1">
          <mxGeometry x="24" y="60" width="120" height="40" as="geometry" />
        </mxCell>
        <mxCell id="F1fCq8_vnOOZPUhWpnB9-5" style="edgeStyle=orthogonalEdgeStyle;rounded=0;orthogonalLoop=1;jettySize=auto;html=1;exitX=1;exitY=0.5;exitDx=0;exitDy=0;entryX=0;entryY=0.5;entryDx=0;entryDy=0;" parent="AIxGSCiM-Fmt9LvVJHG_-1" source="AIxGSCiM-Fmt9LvVJHG_-11" target="F1fCq8_vnOOZPUhWpnB9-2" edge="1">
          <mxGeometry relative="1" as="geometry" />
        </mxCell>
        <mxCell id="AIxGSCiM-Fmt9LvVJHG_-11" value="Verify" style="whiteSpace=wrap;html=1;" parent="AIxGSCiM-Fmt9LvVJHG_-1" vertex="1">
          <mxGeometry x="140" y="200" width="120" height="60" as="geometry" />
        </mxCell>
        <mxCell id="KOtJjVJxmlGmEETttb1B-6" style="edgeStyle=orthogonalEdgeStyle;rounded=0;orthogonalLoop=1;jettySize=auto;html=1;exitX=1;exitY=0.5;exitDx=0;exitDy=0;entryX=0;entryY=0.5;entryDx=0;entryDy=0;" parent="AIxGSCiM-Fmt9LvVJHG_-1" source="AIxGSCiM-Fmt9LvVJHG_-13" target="9RH_LA59GppCGWDuqVye-4" edge="1">
          <mxGeometry relative="1" as="geometry" />
        </mxCell>
        <mxCell id="AIxGSCiM-Fmt9LvVJHG_-13" value="Indentify&lt;br&gt;IOCs" style="whiteSpace=wrap;html=1;" parent="AIxGSCiM-Fmt9LvVJHG_-1" vertex="1">
          <mxGeometry x="320" y="200" width="120" height="60" as="geometry" />
        </mxCell>
        <mxCell id="JmSlJOvxeKhEs41dbQwB-10" style="edgeStyle=orthogonalEdgeStyle;rounded=0;orthogonalLoop=1;jettySize=auto;html=1;exitX=1;exitY=0.5;exitDx=0;exitDy=0;entryX=1;entryY=0.5;entryDx=0;entryDy=0;" parent="AIxGSCiM-Fmt9LvVJHG_-1" source="AIxGSCiM-Fmt9LvVJHG_-15" target="9RH_LA59GppCGWDuqVye-1" edge="1">
          <mxGeometry relative="1" as="geometry">
            <Array as="points">
              <mxPoint x="1120" y="230" />
              <mxPoint x="1120" y="409" />
            </Array>
          </mxGeometry>
        </mxCell>
        <mxCell id="AIxGSCiM-Fmt9LvVJHG_-15" value="Scan&lt;br&gt;Enterprise" style="whiteSpace=wrap;html=1;" parent="AIxGSCiM-Fmt9LvVJHG_-1" vertex="1">
          <mxGeometry x="860" y="200" width="120" height="60" as="geometry" />
        </mxCell>
        <mxCell id="JmSlJOvxeKhEs41dbQwB-1" value="" style="edgeStyle=orthogonalEdgeStyle;rounded=0;orthogonalLoop=1;jettySize=auto;html=1;" parent="AIxGSCiM-Fmt9LvVJHG_-1" source="AIxGSCiM-Fmt9LvVJHG_-16" target="AIxGSCiM-Fmt9LvVJHG_-4" edge="1">
          <mxGeometry relative="1" as="geometry" />
        </mxCell>
        <mxCell id="AIxGSCiM-Fmt9LvVJHG_-16" value="Update Scope" style="shape=document;whiteSpace=wrap;html=1;boundedLbl=1;rounded=0;sketch=0;" parent="AIxGSCiM-Fmt9LvVJHG_-1" vertex="1">
          <mxGeometry x="680" y="379" width="120" height="60" as="geometry" />
        </mxCell>
        <mxCell id="AIxGSCiM-Fmt9LvVJHG_-20" value="&lt;div align=&quot;left&quot;&gt;&lt;ul&gt;&lt;li&gt;Double-check previous data&lt;br&gt;&lt;/li&gt;&lt;li&gt;Rule out false positives&lt;br&gt;&lt;/li&gt;&lt;/ul&gt;&lt;/div&gt;" style="text;html=1;resizable=0;autosize=1;align=center;verticalAlign=middle;points=[];fillColor=none;strokeColor=none;rounded=0;" parent="AIxGSCiM-Fmt9LvVJHG_-1" vertex="1">
          <mxGeometry x="104" y="260" width="200" height="60" as="geometry" />
        </mxCell>
        <mxCell id="JmSlJOvxeKhEs41dbQwB-4" style="edgeStyle=orthogonalEdgeStyle;rounded=0;orthogonalLoop=1;jettySize=auto;html=1;entryX=0;entryY=0.5;entryDx=0;entryDy=0;" parent="AIxGSCiM-Fmt9LvVJHG_-1" source="AIxGSCiM-Fmt9LvVJHG_-25" target="AIxGSCiM-Fmt9LvVJHG_-11" edge="1">
          <mxGeometry relative="1" as="geometry">
            <Array as="points">
              <mxPoint x="100" y="409" />
              <mxPoint x="100" y="230" />
            </Array>
          </mxGeometry>
        </mxCell>
        <mxCell id="AIxGSCiM-Fmt9LvVJHG_-25" value="&lt;div&gt;Scope &lt;br&gt;&lt;/div&gt;&lt;div&gt;Validation&lt;/div&gt;" style="whiteSpace=wrap;html=1;" parent="AIxGSCiM-Fmt9LvVJHG_-1" vertex="1">
          <mxGeometry x="220" y="379" width="120" height="60" as="geometry" />
        </mxCell>
        <mxCell id="KOtJjVJxmlGmEETttb1B-33" value="Yes" style="edgeStyle=orthogonalEdgeStyle;rounded=0;orthogonalLoop=1;jettySize=auto;html=1;" parent="AIxGSCiM-Fmt9LvVJHG_-1" source="pVVDGEqqAennLaTzQl5z-1" target="3FFchjE5PnYsx31WQyVU-2" edge="1">
          <mxGeometry relative="1" as="geometry" />
        </mxCell>
        <mxCell id="KOtJjVJxmlGmEETttb1B-34" style="edgeStyle=orthogonalEdgeStyle;rounded=0;orthogonalLoop=1;jettySize=auto;html=1;exitX=0.5;exitY=1;exitDx=0;exitDy=0;" parent="AIxGSCiM-Fmt9LvVJHG_-1" source="pVVDGEqqAennLaTzQl5z-1" target="9RH_LA59GppCGWDuqVye-6" edge="1">
          <mxGeometry relative="1" as="geometry" />
        </mxCell>
        <mxCell id="kPHXLG40BVYcDqbouMgB-2" value="No" style="edgeLabel;html=1;align=center;verticalAlign=middle;resizable=0;points=[];" parent="KOtJjVJxmlGmEETttb1B-34" vertex="1" connectable="0">
          <mxGeometry x="-0.1801" y="1" relative="1" as="geometry">
            <mxPoint as="offset" />
          </mxGeometry>
        </mxCell>
        <mxCell id="pVVDGEqqAennLaTzQl5z-1" value="&lt;div&gt;Data Was&lt;/div&gt;&lt;div&gt;Exfiltrated&lt;br&gt;&lt;/div&gt;" style="rhombus;whiteSpace=wrap;html=1;shadow=0;fontFamily=Helvetica;fontSize=12;align=center;strokeWidth=1;spacing=6;spacingTop=-4;" parent="AIxGSCiM-Fmt9LvVJHG_-1" vertex="1">
          <mxGeometry x="845" y="730" width="130" height="110" as="geometry" />
        </mxCell>
        <mxCell id="KOtJjVJxmlGmEETttb1B-8" style="edgeStyle=orthogonalEdgeStyle;rounded=0;orthogonalLoop=1;jettySize=auto;html=1;exitX=1;exitY=0.5;exitDx=0;exitDy=0;entryX=0;entryY=0.5;entryDx=0;entryDy=0;" parent="AIxGSCiM-Fmt9LvVJHG_-1" source="pVVDGEqqAennLaTzQl5z-3" target="AIxGSCiM-Fmt9LvVJHG_-15" edge="1">
          <mxGeometry relative="1" as="geometry" />
        </mxCell>
        <mxCell id="pVVDGEqqAennLaTzQl5z-3" value="Submit Sample&lt;br&gt;to Partners" style="whiteSpace=wrap;html=1;" parent="AIxGSCiM-Fmt9LvVJHG_-1" vertex="1">
          <mxGeometry x="680" y="200" width="120" height="60" as="geometry" />
        </mxCell>
        <mxCell id="KOtJjVJxmlGmEETttb1B-27" value="" style="edgeStyle=orthogonalEdgeStyle;rounded=0;orthogonalLoop=1;jettySize=auto;html=1;" parent="AIxGSCiM-Fmt9LvVJHG_-1" source="9RH_LA59GppCGWDuqVye-0" target="9RH_LA59GppCGWDuqVye-5" edge="1">
          <mxGeometry relative="1" as="geometry" />
        </mxCell>
        <mxCell id="9RH_LA59GppCGWDuqVye-0" value="&lt;div&gt;Root Cause&lt;/div&gt;&lt;div&gt;Analysis &lt;br&gt;&lt;/div&gt;" style="whiteSpace=wrap;html=1;" parent="AIxGSCiM-Fmt9LvVJHG_-1" vertex="1">
          <mxGeometry x="485" y="755" width="120" height="60" as="geometry" />
        </mxCell>
        <mxCell id="JmSlJOvxeKhEs41dbQwB-0" value="" style="edgeStyle=orthogonalEdgeStyle;rounded=0;orthogonalLoop=1;jettySize=auto;html=1;" parent="AIxGSCiM-Fmt9LvVJHG_-1" source="9RH_LA59GppCGWDuqVye-1" target="AIxGSCiM-Fmt9LvVJHG_-16" edge="1">
          <mxGeometry relative="1" as="geometry" />
        </mxCell>
        <mxCell id="9RH_LA59GppCGWDuqVye-1" value="What Was&lt;br&gt;Accessed" style="whiteSpace=wrap;html=1;" parent="AIxGSCiM-Fmt9LvVJHG_-1" vertex="1">
          <mxGeometry x="860" y="379" width="120" height="60" as="geometry" />
        </mxCell>
        <mxCell id="KOtJjVJxmlGmEETttb1B-15" style="edgeStyle=orthogonalEdgeStyle;rounded=0;orthogonalLoop=1;jettySize=auto;html=1;exitX=0;exitY=0.5;exitDx=0;exitDy=0;entryX=0;entryY=0.5;entryDx=0;entryDy=0;" parent="AIxGSCiM-Fmt9LvVJHG_-1" source="9RH_LA59GppCGWDuqVye-3" target="KOtJjVJxmlGmEETttb1B-0" edge="1">
          <mxGeometry relative="1" as="geometry">
            <Array as="points">
              <mxPoint x="70" y="609" />
              <mxPoint x="70" y="785" />
            </Array>
          </mxGeometry>
        </mxCell>
        <mxCell id="KOtJjVJxmlGmEETttb1B-17" value="Yes" style="edgeLabel;html=1;align=center;verticalAlign=middle;resizable=0;points=[];" parent="KOtJjVJxmlGmEETttb1B-15" vertex="1" connectable="0">
          <mxGeometry x="-0.8042" y="-1" relative="1" as="geometry">
            <mxPoint as="offset" />
          </mxGeometry>
        </mxCell>
        <mxCell id="KOtJjVJxmlGmEETttb1B-18" style="edgeStyle=orthogonalEdgeStyle;rounded=0;orthogonalLoop=1;jettySize=auto;html=1;exitX=0.5;exitY=1;exitDx=0;exitDy=0;entryX=0.5;entryY=0;entryDx=0;entryDy=0;" parent="AIxGSCiM-Fmt9LvVJHG_-1" source="9RH_LA59GppCGWDuqVye-3" target="9RH_LA59GppCGWDuqVye-0" edge="1">
          <mxGeometry relative="1" as="geometry" />
        </mxCell>
        <mxCell id="KOtJjVJxmlGmEETttb1B-19" value="No" style="edgeLabel;html=1;align=center;verticalAlign=middle;resizable=0;points=[];" parent="KOtJjVJxmlGmEETttb1B-18" vertex="1" connectable="0">
          <mxGeometry x="-0.9013" y="1" relative="1" as="geometry">
            <mxPoint as="offset" />
          </mxGeometry>
        </mxCell>
        <mxCell id="9RH_LA59GppCGWDuqVye-3" value="&lt;div&gt;Do We &lt;br&gt;&lt;/div&gt;&lt;div&gt;Need&lt;/div&gt;&lt;div&gt;External&lt;/div&gt;&lt;div&gt;Help&lt;br&gt;&lt;/div&gt;" style="rhombus;whiteSpace=wrap;html=1;shadow=0;fontFamily=Helvetica;fontSize=12;align=center;strokeWidth=1;spacing=6;spacingTop=-4;" parent="AIxGSCiM-Fmt9LvVJHG_-1" vertex="1">
          <mxGeometry x="300" y="557" width="130" height="110" as="geometry" />
        </mxCell>
        <mxCell id="KOtJjVJxmlGmEETttb1B-7" style="edgeStyle=orthogonalEdgeStyle;rounded=0;orthogonalLoop=1;jettySize=auto;html=1;exitX=1;exitY=0.5;exitDx=0;exitDy=0;entryX=0;entryY=0.5;entryDx=0;entryDy=0;" parent="AIxGSCiM-Fmt9LvVJHG_-1" source="9RH_LA59GppCGWDuqVye-4" target="pVVDGEqqAennLaTzQl5z-3" edge="1">
          <mxGeometry relative="1" as="geometry" />
        </mxCell>
        <mxCell id="9RH_LA59GppCGWDuqVye-4" value="&lt;div&gt;Extract IOC &lt;br&gt;&lt;/div&gt;&lt;div&gt;from &lt;u&gt;Private &lt;/u&gt;&lt;br&gt;&lt;/div&gt;&lt;div&gt;Sandbox&lt;br&gt;&lt;/div&gt;" style="whiteSpace=wrap;html=1;" parent="AIxGSCiM-Fmt9LvVJHG_-1" vertex="1">
          <mxGeometry x="500" y="200" width="120" height="60" as="geometry" />
        </mxCell>
        <mxCell id="KOtJjVJxmlGmEETttb1B-28" value="" style="edgeStyle=orthogonalEdgeStyle;rounded=0;orthogonalLoop=1;jettySize=auto;html=1;" parent="AIxGSCiM-Fmt9LvVJHG_-1" source="9RH_LA59GppCGWDuqVye-5" target="pVVDGEqqAennLaTzQl5z-1" edge="1">
          <mxGeometry relative="1" as="geometry" />
        </mxCell>
        <mxCell id="9RH_LA59GppCGWDuqVye-5" value="&lt;div&gt;Determine&lt;/div&gt;&lt;div&gt;Mitre ATT&amp;amp;CK &lt;br&gt;&lt;/div&gt;&lt;div&gt;Stage&lt;br&gt;&lt;/div&gt;" style="whiteSpace=wrap;html=1;" parent="AIxGSCiM-Fmt9LvVJHG_-1" vertex="1">
          <mxGeometry x="670" y="755" width="120" height="60" as="geometry" />
        </mxCell>
        <mxCell id="KOtJjVJxmlGmEETttb1B-35" value="" style="edgeStyle=orthogonalEdgeStyle;rounded=0;orthogonalLoop=1;jettySize=auto;html=1;" parent="AIxGSCiM-Fmt9LvVJHG_-1" source="9RH_LA59GppCGWDuqVye-6" target="AIxGSCiM-Fmt9LvVJHG_-9" edge="1">
          <mxGeometry relative="1" as="geometry" />
        </mxCell>
        <mxCell id="9RH_LA59GppCGWDuqVye-6" value="Send Communication" style="whiteSpace=wrap;html=1;" parent="AIxGSCiM-Fmt9LvVJHG_-1" vertex="1">
          <mxGeometry x="850" y="930" width="120" height="60" as="geometry" />
        </mxCell>
        <mxCell id="3FFchjE5PnYsx31WQyVU-2" value="&lt;div&gt;Data Lost&lt;/div&gt;&lt;div&gt;Playbook&lt;br&gt;&lt;/div&gt;" style="shape=step;perimeter=stepPerimeter;whiteSpace=wrap;html=1;fixedSize=1;" parent="AIxGSCiM-Fmt9LvVJHG_-1" vertex="1">
          <mxGeometry x="1020" y="765" width="120" height="40" as="geometry" />
        </mxCell>
        <mxCell id="KOtJjVJxmlGmEETttb1B-21" value="" style="edgeStyle=orthogonalEdgeStyle;rounded=0;orthogonalLoop=1;jettySize=auto;html=1;" parent="AIxGSCiM-Fmt9LvVJHG_-1" source="KOtJjVJxmlGmEETttb1B-0" target="KOtJjVJxmlGmEETttb1B-2" edge="1">
          <mxGeometry relative="1" as="geometry" />
        </mxCell>
        <mxCell id="KOtJjVJxmlGmEETttb1B-22" value="Yes" style="edgeLabel;html=1;align=center;verticalAlign=middle;resizable=0;points=[];" parent="KOtJjVJxmlGmEETttb1B-21" vertex="1" connectable="0">
          <mxGeometry x="-0.2889" y="1" relative="1" as="geometry">
            <mxPoint as="offset" />
          </mxGeometry>
        </mxCell>
        <mxCell id="KOtJjVJxmlGmEETttb1B-23" value="" style="edgeStyle=orthogonalEdgeStyle;rounded=0;orthogonalLoop=1;jettySize=auto;html=1;" parent="AIxGSCiM-Fmt9LvVJHG_-1" source="KOtJjVJxmlGmEETttb1B-0" target="KOtJjVJxmlGmEETttb1B-1" edge="1">
          <mxGeometry relative="1" as="geometry" />
        </mxCell>
        <mxCell id="KOtJjVJxmlGmEETttb1B-29" value="No" style="edgeLabel;html=1;align=center;verticalAlign=middle;resizable=0;points=[];" parent="KOtJjVJxmlGmEETttb1B-23" vertex="1" connectable="0">
          <mxGeometry x="-0.2444" y="-1" relative="1" as="geometry">
            <mxPoint as="offset" />
          </mxGeometry>
        </mxCell>
        <mxCell id="KOtJjVJxmlGmEETttb1B-0" value="&lt;div&gt;Do We &lt;br&gt;&lt;/div&gt;&lt;div&gt;Need &lt;br&gt;&lt;/div&gt;&lt;div&gt;Technical&lt;br&gt;&lt;/div&gt;&lt;div&gt;Help&lt;br&gt;&lt;/div&gt;" style="rhombus;whiteSpace=wrap;html=1;shadow=0;fontFamily=Helvetica;fontSize=12;align=center;strokeWidth=1;spacing=6;spacingTop=-4;" parent="AIxGSCiM-Fmt9LvVJHG_-1" vertex="1">
          <mxGeometry x="125" y="730" width="130" height="110" as="geometry" />
        </mxCell>
        <mxCell id="KOtJjVJxmlGmEETttb1B-24" value="" style="edgeStyle=orthogonalEdgeStyle;rounded=0;orthogonalLoop=1;jettySize=auto;html=1;" parent="AIxGSCiM-Fmt9LvVJHG_-1" source="KOtJjVJxmlGmEETttb1B-1" target="KOtJjVJxmlGmEETttb1B-3" edge="1">
          <mxGeometry relative="1" as="geometry" />
        </mxCell>
        <mxCell id="KOtJjVJxmlGmEETttb1B-25" value="Yes" style="edgeLabel;html=1;align=center;verticalAlign=middle;resizable=0;points=[];" parent="KOtJjVJxmlGmEETttb1B-24" vertex="1" connectable="0">
          <mxGeometry x="-0.3111" y="1" relative="1" as="geometry">
            <mxPoint as="offset" />
          </mxGeometry>
        </mxCell>
        <mxCell id="KOtJjVJxmlGmEETttb1B-26" value="" style="edgeStyle=orthogonalEdgeStyle;rounded=0;orthogonalLoop=1;jettySize=auto;html=1;" parent="AIxGSCiM-Fmt9LvVJHG_-1" source="KOtJjVJxmlGmEETttb1B-1" target="9RH_LA59GppCGWDuqVye-0" edge="1">
          <mxGeometry relative="1" as="geometry" />
        </mxCell>
        <mxCell id="KOtJjVJxmlGmEETttb1B-1" value="&lt;div&gt;Do We &lt;br&gt;&lt;/div&gt;&lt;div&gt;Need &lt;br&gt;&lt;/div&gt;&lt;div&gt;Legal&lt;br&gt;&lt;/div&gt;&lt;div&gt;Help&lt;br&gt;&lt;/div&gt;" style="rhombus;whiteSpace=wrap;html=1;shadow=0;fontFamily=Helvetica;fontSize=12;align=center;strokeWidth=1;spacing=6;spacingTop=-4;" parent="AIxGSCiM-Fmt9LvVJHG_-1" vertex="1">
          <mxGeometry x="300" y="730" width="130" height="110" as="geometry" />
        </mxCell>
        <mxCell id="KOtJjVJxmlGmEETttb1B-32" style="edgeStyle=orthogonalEdgeStyle;rounded=0;orthogonalLoop=1;jettySize=auto;html=1;exitX=0;exitY=0.5;exitDx=0;exitDy=0;entryX=0.75;entryY=1;entryDx=0;entryDy=0;" parent="AIxGSCiM-Fmt9LvVJHG_-1" source="KOtJjVJxmlGmEETttb1B-2" target="9RH_LA59GppCGWDuqVye-0" edge="1">
          <mxGeometry relative="1" as="geometry">
            <mxPoint x="540" y="1060" as="targetPoint" />
            <Array as="points">
              <mxPoint x="190" y="960" />
              <mxPoint x="190" y="1030" />
              <mxPoint x="660" y="1030" />
              <mxPoint x="660" y="830" />
              <mxPoint x="575" y="830" />
            </Array>
          </mxGeometry>
        </mxCell>
        <mxCell id="KOtJjVJxmlGmEETttb1B-2" value="&lt;div&gt;Contact&lt;/div&gt;&lt;div&gt;IR Pro. Serv.&lt;br&gt;&lt;/div&gt;" style="whiteSpace=wrap;html=1;" parent="AIxGSCiM-Fmt9LvVJHG_-1" vertex="1">
          <mxGeometry x="130" y="930" width="120" height="60" as="geometry" />
        </mxCell>
        <mxCell id="KOtJjVJxmlGmEETttb1B-31" style="edgeStyle=orthogonalEdgeStyle;rounded=0;orthogonalLoop=1;jettySize=auto;html=1;exitX=1;exitY=0.5;exitDx=0;exitDy=0;entryX=0;entryY=0.75;entryDx=0;entryDy=0;" parent="AIxGSCiM-Fmt9LvVJHG_-1" source="KOtJjVJxmlGmEETttb1B-3" target="9RH_LA59GppCGWDuqVye-0" edge="1">
          <mxGeometry relative="1" as="geometry">
            <mxPoint x="480" y="800" as="targetPoint" />
            <Array as="points">
              <mxPoint x="450" y="960" />
              <mxPoint x="450" y="800" />
            </Array>
          </mxGeometry>
        </mxCell>
        <mxCell id="KOtJjVJxmlGmEETttb1B-3" value="&lt;div&gt;Contact&lt;/div&gt;&lt;div&gt;Breach Coach&lt;br&gt;&lt;/div&gt;" style="whiteSpace=wrap;html=1;" parent="AIxGSCiM-Fmt9LvVJHG_-1" vertex="1">
          <mxGeometry x="305" y="930" width="120" height="60" as="geometry" />
        </mxCell>
        <mxCell id="kPHXLG40BVYcDqbouMgB-0" value="&lt;div align=&quot;left&quot;&gt;&lt;ul&gt;&lt;li&gt;Phish&lt;br&gt;&lt;/li&gt;&lt;li&gt;Drive By Download&lt;/li&gt;&lt;li&gt;Vulnerability&lt;/li&gt;&lt;ul&gt;&lt;li&gt;RCE&lt;/li&gt;&lt;li&gt;XSS&lt;/li&gt;&lt;li&gt;LFI&lt;/li&gt;&lt;/ul&gt;&lt;li&gt;Remote Service&lt;/li&gt;&lt;ul&gt;&lt;li&gt;Default / Weak Password&lt;/li&gt;&lt;li&gt;Brute Force&lt;/li&gt;&lt;li&gt;Vulnerability&lt;br&gt;&lt;/li&gt;&lt;/ul&gt;&lt;li&gt;USB Key&lt;br&gt;&lt;/li&gt;&lt;/ul&gt;&lt;/div&gt;" style="text;html=1;resizable=0;autosize=1;align=center;verticalAlign=middle;points=[];fillColor=none;strokeColor=none;rounded=0;" parent="AIxGSCiM-Fmt9LvVJHG_-1" vertex="1">
          <mxGeometry x="430" y="815" width="230" height="180" as="geometry" />
        </mxCell>
        <mxCell id="kPHXLG40BVYcDqbouMgB-3" value="&lt;div align=&quot;left&quot;&gt;&lt;ul&gt;&lt;li&gt;Files&lt;/li&gt;&lt;li&gt;Process&lt;/li&gt;&lt;li&gt;Services / Daemons&lt;br&gt;&lt;/li&gt;&lt;li&gt;Registry&lt;/li&gt;&lt;li&gt;Start Folder&lt;/li&gt;&lt;li&gt;WMIC&lt;/li&gt;&lt;li&gt;Users&lt;br&gt;&lt;/li&gt;&lt;/ul&gt;&lt;/div&gt;" style="text;html=1;resizable=0;autosize=1;align=center;verticalAlign=middle;points=[];fillColor=none;strokeColor=none;rounded=0;" parent="AIxGSCiM-Fmt9LvVJHG_-1" vertex="1">
          <mxGeometry x="285" y="260" width="160" height="130" as="geometry" />
        </mxCell>
        <mxCell id="kPHXLG40BVYcDqbouMgB-5" value="&lt;div align=&quot;left&quot;&gt;&lt;ul&gt;&lt;li&gt;Network connection&lt;/li&gt;&lt;li&gt;Any other indicators&lt;/li&gt;&lt;li&gt;Deobfuscation&lt;br&gt;&lt;/li&gt;&lt;/ul&gt;&lt;/div&gt;" style="text;html=1;resizable=0;autosize=1;align=center;verticalAlign=middle;points=[];fillColor=none;strokeColor=none;rounded=0;" parent="AIxGSCiM-Fmt9LvVJHG_-1" vertex="1">
          <mxGeometry x="465" y="260" width="160" height="70" as="geometry" />
        </mxCell>
        <mxCell id="lin5sFJiOkewW6Y6pHkq-0" value="&lt;div align=&quot;left&quot;&gt;&lt;ul&gt;&lt;li&gt;Signs of lateral movement&lt;/li&gt;&lt;li&gt;Review firewall logs&lt;/li&gt;&lt;li&gt;Review netflows&lt;br&gt;&lt;/li&gt;&lt;/ul&gt;&lt;/div&gt;" style="text;html=1;resizable=0;autosize=1;align=center;verticalAlign=middle;points=[];fillColor=none;strokeColor=none;rounded=0;" parent="AIxGSCiM-Fmt9LvVJHG_-1" vertex="1">
          <mxGeometry x="835" y="445" width="190" height="70" as="geometry" />
        </mxCell>
        <mxCell id="JmSlJOvxeKhEs41dbQwB-9" value="&lt;div align=&quot;left&quot;&gt;&lt;ul&gt;&lt;li&gt;AV / EDR&lt;/li&gt;&lt;li&gt;Network&lt;/li&gt;&lt;li&gt;Etc.&lt;br&gt;&lt;br&gt;&lt;/li&gt;&lt;/ul&gt;&lt;/div&gt;" style="text;html=1;resizable=0;autosize=1;align=center;verticalAlign=middle;points=[];fillColor=none;strokeColor=none;rounded=0;" parent="AIxGSCiM-Fmt9LvVJHG_-1" vertex="1">
          <mxGeometry x="650" y="260" width="110" height="90" as="geometry" />
        </mxCell>
        <mxCell id="JmSlJOvxeKhEs41dbQwB-12" value="&lt;div align=&quot;left&quot;&gt;&lt;ul&gt;&lt;li&gt;&lt;font style=&quot;font-size: 12px&quot;&gt;Update EDR Policies&lt;br&gt;&lt;/font&gt;&lt;/li&gt;&lt;li&gt;&lt;font style=&quot;font-size: 12px&quot;&gt;&lt;span style=&quot;left: 685.617px ; top: 452.607px ; font-family: sans-serif ; transform: scalex(1.01027)&quot;&gt;Update FW, IDS, etc. rules w/ IOCs&lt;/span&gt;&lt;/font&gt;&lt;/li&gt;&lt;li&gt;&lt;font style=&quot;font-size: 12px&quot;&gt;&lt;span style=&quot;left: 685.617px ; top: 452.607px ; font-family: sans-serif ; transform: scalex(1.01027)&quot;&gt;Search endpoints for IOCs w/ EDR&lt;/span&gt;&lt;/font&gt;&lt;/li&gt;&lt;li&gt;&lt;font style=&quot;font-size: 12px&quot;&gt;&lt;span style=&quot;left: 685.617px ; top: 452.607px ; font-family: sans-serif ; transform: scalex(1.01027)&quot;&gt;Search firewall/proxy/DNS logs for IOCs&lt;br&gt;&lt;/span&gt;&lt;/font&gt;&lt;/li&gt;&lt;/ul&gt;&lt;/div&gt;" style="text;html=1;resizable=0;autosize=1;align=center;verticalAlign=middle;points=[];fillColor=none;strokeColor=none;rounded=0;" parent="AIxGSCiM-Fmt9LvVJHG_-1" vertex="1">
          <mxGeometry x="830" y="260" width="270" height="90" as="geometry" />
        </mxCell>
        <mxCell id="JmSlJOvxeKhEs41dbQwB-15" value="&lt;div&gt;U&lt;span style=&quot;left: 934.675px ; top: 435.807px ; font-size: 13.3218px ; font-family: sans-serif ; transform: scalex(1.00873)&quot;&gt;pdate lists of &lt;br&gt;&lt;/span&gt;&lt;/div&gt;&lt;div&gt;&lt;ul&gt;&lt;li&gt;&lt;span style=&quot;left: 961.55px ; top: 452.607px ; font-size: 13.3218px ; font-family: sans-serif ; transform: scalex(1.00896)&quot;&gt;&lt;/span&gt;&lt;span style=&quot;left: 961.55px ; top: 467.407px ; font-size: 13.3218px ; font-family: sans-serif ; transform: scalex(1.00967)&quot;&gt;affected endpoints&lt;/span&gt;&lt;/li&gt;&lt;li&gt;&lt;span style=&quot;left: 961.55px ; top: 467.407px ; font-size: 13.3218px ; font-family: sans-serif ; transform: scalex(1.00967)&quot;&gt;affected Syntac entities&lt;br&gt;&lt;/span&gt;&lt;/li&gt;&lt;li&gt;&lt;span style=&quot;left: 943.409px ; top: 484.207px ; font-size: 13.3218px ; font-family: sans-serif&quot;&gt;&lt;/span&gt;&lt;span style=&quot;left: 961.55px ; top: 484.207px ; font-size: 13.3218px ; font-family: sans-serif ; transform: scalex(1.00976)&quot;&gt;affected clients&lt;/span&gt;&lt;/li&gt;&lt;/ul&gt;&lt;/div&gt;" style="text;whiteSpace=wrap;html=1;" parent="AIxGSCiM-Fmt9LvVJHG_-1" vertex="1">
          <mxGeometry x="670" y="445" width="240" height="110" as="geometry" />
        </mxCell>
        <mxCell id="JmSlJOvxeKhEs41dbQwB-16" value="&lt;div align=&quot;left&quot;&gt;&lt;ul&gt;&lt;li&gt;New signs of infection&lt;br&gt;&lt;/li&gt;&lt;li&gt;Search customers environment&lt;br&gt;&lt;/li&gt;&lt;li&gt;&lt;font style=&quot;font-size: 12px&quot;&gt;&lt;span style=&quot;left: 685.617px ; top: 452.607px ; font-family: sans-serif ; transform: scalex(1.01027)&quot;&gt;Search endpoints for IOCs w/ EDR&lt;/span&gt;&lt;/font&gt;&lt;/li&gt;&lt;li&gt;&lt;font style=&quot;font-size: 12px&quot;&gt;&lt;span style=&quot;left: 685.617px ; top: 452.607px ; font-family: sans-serif ; transform: scalex(1.01027)&quot;&gt;Search firewall/proxy/DNS logs for IOCs&lt;br&gt;&lt;/span&gt;&lt;/font&gt;&lt;/li&gt;&lt;/ul&gt;&lt;/div&gt;" style="text;html=1;resizable=0;autosize=1;align=center;verticalAlign=middle;points=[];fillColor=none;strokeColor=none;rounded=0;" parent="AIxGSCiM-Fmt9LvVJHG_-1" vertex="1">
          <mxGeometry x="190" y="439" width="270" height="90" as="geometry" />
        </mxCell>
        <mxCell id="JmSlJOvxeKhEs41dbQwB-17" value="&lt;div align=&quot;left&quot;&gt;&lt;ul&gt;&lt;li&gt;Internal Security Teams&lt;/li&gt;&lt;li&gt;Affected Clients&lt;/li&gt;&lt;li&gt;Non-Affected Clients&lt;br&gt;&lt;/li&gt;&lt;li&gt;Any internal teams needed for &lt;br&gt;remediation or regulation&lt;br&gt;&lt;br&gt;&lt;/li&gt;&lt;/ul&gt;&lt;/div&gt;" style="text;html=1;resizable=0;autosize=1;align=center;verticalAlign=middle;points=[];fillColor=none;strokeColor=none;rounded=0;" parent="AIxGSCiM-Fmt9LvVJHG_-1" vertex="1">
          <mxGeometry x="810" y="990" width="220" height="110" as="geometry" />
        </mxCell>
        <mxCell id="JmSlJOvxeKhEs41dbQwB-18" value="&lt;div align=&quot;left&quot;&gt;&lt;ul&gt;&lt;li&gt;Was Action on Objective &lt;br&gt;successful &lt;br&gt;&lt;/li&gt;&lt;/ul&gt;&lt;/div&gt;" style="text;html=1;resizable=0;autosize=1;align=center;verticalAlign=middle;points=[];fillColor=none;strokeColor=none;rounded=0;" parent="AIxGSCiM-Fmt9LvVJHG_-1" vertex="1">
          <mxGeometry x="640" y="815" width="190" height="60" as="geometry" />
        </mxCell>
        <mxCell id="F1fCq8_vnOOZPUhWpnB9-0" style="edgeStyle=orthogonalEdgeStyle;rounded=0;orthogonalLoop=1;jettySize=auto;html=1;exitX=1;exitY=0.5;exitDx=0;exitDy=0;entryX=0;entryY=0.5;entryDx=0;entryDy=0;" parent="AIxGSCiM-Fmt9LvVJHG_-1" source="F1fCq8_vnOOZPUhWpnB9-2" target="F1fCq8_vnOOZPUhWpnB9-3" edge="1">
          <mxGeometry relative="1" as="geometry" />
        </mxCell>
        <mxCell id="F1fCq8_vnOOZPUhWpnB9-1" value="Yes" style="edgeLabel;html=1;align=center;verticalAlign=middle;resizable=0;points=[];" parent="F1fCq8_vnOOZPUhWpnB9-0" vertex="1" connectable="0">
          <mxGeometry x="-0.3943" y="-1" relative="1" as="geometry">
            <mxPoint as="offset" />
          </mxGeometry>
        </mxCell>
        <mxCell id="F1fCq8_vnOOZPUhWpnB9-4" value="" style="edgeStyle=orthogonalEdgeStyle;rounded=0;orthogonalLoop=1;jettySize=auto;html=1;exitX=0.5;exitY=1;exitDx=0;exitDy=0;entryX=0.5;entryY=0;entryDx=0;entryDy=0;" parent="AIxGSCiM-Fmt9LvVJHG_-1" source="F1fCq8_vnOOZPUhWpnB9-2" target="AIxGSCiM-Fmt9LvVJHG_-13" edge="1">
          <mxGeometry relative="1" as="geometry">
            <Array as="points">
              <mxPoint x="380" y="170" />
              <mxPoint x="380" y="170" />
            </Array>
          </mxGeometry>
        </mxCell>
        <mxCell id="F1fCq8_vnOOZPUhWpnB9-6" value="No" style="edgeLabel;html=1;align=center;verticalAlign=middle;resizable=0;points=[];" parent="F1fCq8_vnOOZPUhWpnB9-4" vertex="1" connectable="0">
          <mxGeometry x="-0.2" y="-6" relative="1" as="geometry">
            <mxPoint x="6" y="-6" as="offset" />
          </mxGeometry>
        </mxCell>
        <mxCell id="F1fCq8_vnOOZPUhWpnB9-2" value="&lt;div&gt;Critical&lt;/div&gt;&lt;div&gt;Incident?&lt;br&gt;&lt;/div&gt;" style="rhombus;whiteSpace=wrap;html=1;shadow=0;fontFamily=Helvetica;fontSize=12;align=center;strokeWidth=1;spacing=6;spacingTop=-4;" parent="AIxGSCiM-Fmt9LvVJHG_-1" vertex="1">
          <mxGeometry x="315" y="40" width="130" height="110" as="geometry" />
        </mxCell>
        <mxCell id="F1fCq8_vnOOZPUhWpnB9-3" value="&lt;div&gt;Run Critical &lt;br&gt;&lt;/div&gt;&lt;div&gt;Inc. Playbook&lt;br&gt;&lt;/div&gt;" style="shape=step;perimeter=stepPerimeter;whiteSpace=wrap;html=1;fixedSize=1;" parent="AIxGSCiM-Fmt9LvVJHG_-1" vertex="1">
          <mxGeometry x="605" y="75" width="120" height="40" as="geometry" />
        </mxCell>
        <mxCell id="uzBeJ7bO4JWGI7i5VYcl-0" value="MA1" style="whiteSpace=wrap;html=1;aspect=fixed;fillColor=#E6E6E6;rotation=0;" parent="AIxGSCiM-Fmt9LvVJHG_-1" vertex="1">
          <mxGeometry x="140" y="170" width="30" height="30" as="geometry" />
        </mxCell>
        <mxCell id="uzBeJ7bO4JWGI7i5VYcl-1" value="MA3" style="whiteSpace=wrap;html=1;aspect=fixed;fillColor=#E6E6E6;rotation=0;" parent="AIxGSCiM-Fmt9LvVJHG_-1" vertex="1">
          <mxGeometry x="320" y="170" width="30" height="30" as="geometry" />
        </mxCell>
        <mxCell id="uzBeJ7bO4JWGI7i5VYcl-2" value="MA4" style="whiteSpace=wrap;html=1;aspect=fixed;fillColor=#E6E6E6;rotation=0;" parent="AIxGSCiM-Fmt9LvVJHG_-1" vertex="1">
          <mxGeometry x="500" y="170" width="30" height="30" as="geometry" />
        </mxCell>
        <mxCell id="uzBeJ7bO4JWGI7i5VYcl-3" value="MA5" style="whiteSpace=wrap;html=1;aspect=fixed;fillColor=#E6E6E6;rotation=0;" parent="AIxGSCiM-Fmt9LvVJHG_-1" vertex="1">
          <mxGeometry x="680" y="170" width="30" height="30" as="geometry" />
        </mxCell>
        <mxCell id="uzBeJ7bO4JWGI7i5VYcl-4" value="MA6" style="whiteSpace=wrap;html=1;aspect=fixed;fillColor=#E6E6E6;rotation=0;" parent="AIxGSCiM-Fmt9LvVJHG_-1" vertex="1">
          <mxGeometry x="860" y="170" width="30" height="30" as="geometry" />
        </mxCell>
        <mxCell id="uzBeJ7bO4JWGI7i5VYcl-5" value="MA7" style="whiteSpace=wrap;html=1;aspect=fixed;fillColor=#E6E6E6;rotation=0;" parent="AIxGSCiM-Fmt9LvVJHG_-1" vertex="1">
          <mxGeometry x="860" y="349" width="30" height="30" as="geometry" />
        </mxCell>
        <mxCell id="uzBeJ7bO4JWGI7i5VYcl-6" value="MA8" style="whiteSpace=wrap;html=1;aspect=fixed;fillColor=#E6E6E6;rotation=0;" parent="AIxGSCiM-Fmt9LvVJHG_-1" vertex="1">
          <mxGeometry x="680" y="349" width="30" height="30" as="geometry" />
        </mxCell>
        <mxCell id="uzBeJ7bO4JWGI7i5VYcl-7" value="MA10" style="whiteSpace=wrap;html=1;aspect=fixed;fillColor=#E6E6E6;rotation=0;fontSize=10;" parent="AIxGSCiM-Fmt9LvVJHG_-1" vertex="1">
          <mxGeometry x="220" y="349" width="30" height="30" as="geometry" />
        </mxCell>
        <mxCell id="uzBeJ7bO4JWGI7i5VYcl-8" value="MA13" style="whiteSpace=wrap;html=1;aspect=fixed;fillColor=#E6E6E6;rotation=0;fontSize=10;" parent="AIxGSCiM-Fmt9LvVJHG_-1" vertex="1">
          <mxGeometry x="130" y="900" width="30" height="30" as="geometry" />
        </mxCell>
        <mxCell id="uzBeJ7bO4JWGI7i5VYcl-9" value="MA15" style="whiteSpace=wrap;html=1;aspect=fixed;fillColor=#E6E6E6;rotation=0;fontSize=10;" parent="AIxGSCiM-Fmt9LvVJHG_-1" vertex="1">
          <mxGeometry x="305" y="900" width="30" height="30" as="geometry" />
        </mxCell>
        <mxCell id="uzBeJ7bO4JWGI7i5VYcl-10" value="MA16" style="whiteSpace=wrap;html=1;aspect=fixed;fillColor=#E6E6E6;rotation=0;fontSize=10;" parent="AIxGSCiM-Fmt9LvVJHG_-1" vertex="1">
          <mxGeometry x="485" y="725" width="30" height="30" as="geometry" />
        </mxCell>
        <mxCell id="uzBeJ7bO4JWGI7i5VYcl-11" value="MA17" style="whiteSpace=wrap;html=1;aspect=fixed;fillColor=#E6E6E6;rotation=0;fontSize=10;" parent="AIxGSCiM-Fmt9LvVJHG_-1" vertex="1">
          <mxGeometry x="670" y="725" width="30" height="30" as="geometry" />
        </mxCell>
        <mxCell id="uzBeJ7bO4JWGI7i5VYcl-12" value="MA19" style="whiteSpace=wrap;html=1;aspect=fixed;fillColor=#E6E6E6;rotation=0;fontSize=10;" parent="AIxGSCiM-Fmt9LvVJHG_-1" vertex="1">
          <mxGeometry x="850" y="900" width="30" height="30" as="geometry" />
        </mxCell>
        <mxCell id="XJrqP7T2VFvas0zgwgeJ-6" value="&lt;div style=&quot;font-size: 10px;&quot;&gt;MA14&lt;/div&gt;" style="whiteSpace=wrap;html=1;aspect=fixed;fillColor=#E6E6E6;rotation=319;fontSize=10;" parent="AIxGSCiM-Fmt9LvVJHG_-1" vertex="1">
          <mxGeometry x="315" y="725" width="30" height="30" as="geometry" />
        </mxCell>
        <mxCell id="XJrqP7T2VFvas0zgwgeJ-7" value="&lt;div style=&quot;font-size: 10px&quot;&gt;MA18&lt;/div&gt;" style="whiteSpace=wrap;html=1;aspect=fixed;fillColor=#E6E6E6;rotation=319;fontSize=10;" parent="AIxGSCiM-Fmt9LvVJHG_-1" vertex="1">
          <mxGeometry x="860" y="725" width="30" height="30" as="geometry" />
        </mxCell>
      </root>
    </mxGraphModel>
  </diagram>
  <diagram name="Contain/Eradicate" id="IQJmYuUgeiU4PoyMwM4U">
    <mxGraphModel dx="1186" dy="767" grid="1" gridSize="10" guides="1" tooltips="1" connect="1" arrows="1" fold="1" page="1" pageScale="1" pageWidth="1169" pageHeight="827" math="0" shadow="0">
      <root>
        <mxCell id="6QDcUnihvjDoQdgqCpfs-0" />
        <mxCell id="6QDcUnihvjDoQdgqCpfs-1" parent="6QDcUnihvjDoQdgqCpfs-0" />
        <mxCell id="JvNt4UTAjNNppTVWIh8j-0" value="&lt;div style=&quot;font-size: 12px;&quot;&gt;MC1&lt;/div&gt;" style="whiteSpace=wrap;html=1;aspect=fixed;fillColor=#E6E6E6;rotation=319;fontSize=12;" parent="6QDcUnihvjDoQdgqCpfs-1" vertex="1">
          <mxGeometry x="183" y="121" width="30" height="30" as="geometry" />
        </mxCell>
        <mxCell id="JvNt4UTAjNNppTVWIh8j-4" value="&lt;div style=&quot;font-size: 12px;&quot;&gt;MC6&lt;/div&gt;" style="whiteSpace=wrap;html=1;aspect=fixed;fillColor=#E6E6E6;rotation=319;fontSize=12;" parent="6QDcUnihvjDoQdgqCpfs-1" vertex="1">
          <mxGeometry x="370" y="485" width="30" height="30" as="geometry" />
        </mxCell>
        <mxCell id="JvNt4UTAjNNppTVWIh8j-5" value="&lt;div style=&quot;font-size: 10px&quot;&gt;MC16&lt;/div&gt;" style="whiteSpace=wrap;html=1;aspect=fixed;fillColor=#E6E6E6;rotation=319;fontSize=10;" parent="6QDcUnihvjDoQdgqCpfs-1" vertex="1">
          <mxGeometry x="181" y="678" width="30" height="30" as="geometry" />
        </mxCell>
        <mxCell id="JvNt4UTAjNNppTVWIh8j-6" value="&lt;div style=&quot;font-size: 10px&quot;&gt;MC15&lt;/div&gt;" style="whiteSpace=wrap;html=1;aspect=fixed;fillColor=#E6E6E6;rotation=319;fontSize=10;" parent="6QDcUnihvjDoQdgqCpfs-1" vertex="1">
          <mxGeometry x="370" y="680" width="30" height="30" as="geometry" />
        </mxCell>
        <mxCell id="JvNt4UTAjNNppTVWIh8j-3" value="&lt;div style=&quot;font-size: 10px;&quot;&gt;MC11&lt;/div&gt;" style="whiteSpace=wrap;html=1;aspect=fixed;fillColor=#E6E6E6;rotation=319;fontSize=10;" parent="6QDcUnihvjDoQdgqCpfs-1" vertex="1">
          <mxGeometry x="770" y="315" width="30" height="30" as="geometry" />
        </mxCell>
        <mxCell id="JvNt4UTAjNNppTVWIh8j-2" value="&lt;div style=&quot;font-size: 12px&quot;&gt;MC2&lt;/div&gt;" style="whiteSpace=wrap;html=1;aspect=fixed;fillColor=#E6E6E6;rotation=319;fontSize=12;" parent="6QDcUnihvjDoQdgqCpfs-1" vertex="1">
          <mxGeometry x="183" y="311" width="30" height="30" as="geometry" />
        </mxCell>
        <mxCell id="JvNt4UTAjNNppTVWIh8j-1" value="&lt;div style=&quot;font-size: 12px&quot;&gt;MC8&lt;/div&gt;" style="whiteSpace=wrap;html=1;aspect=fixed;fillColor=#E6E6E6;rotation=319;fontSize=12;" parent="6QDcUnihvjDoQdgqCpfs-1" vertex="1">
          <mxGeometry x="770" y="125" width="30" height="30" as="geometry" />
        </mxCell>
        <mxCell id="6QDcUnihvjDoQdgqCpfs-2" value="&lt;h1&gt;Malware - Contain / Eradicate&lt;br&gt;&lt;/h1&gt;" style="text;html=1;strokeColor=none;fillColor=none;spacing=5;spacingTop=-20;whiteSpace=wrap;overflow=hidden;rounded=0;" parent="6QDcUnihvjDoQdgqCpfs-1" vertex="1">
          <mxGeometry x="10" y="10" width="470" height="40" as="geometry" />
        </mxCell>
        <mxCell id="qxH52fe12lm0WVoAYw8L-2" style="edgeStyle=orthogonalEdgeStyle;rounded=0;orthogonalLoop=1;jettySize=auto;html=1;exitX=1;exitY=0.5;exitDx=0;exitDy=0;entryX=0.5;entryY=0;entryDx=0;entryDy=0;" parent="6QDcUnihvjDoQdgqCpfs-1" source="6QDcUnihvjDoQdgqCpfs-3" target="qxH52fe12lm0WVoAYw8L-0" edge="1">
          <mxGeometry relative="1" as="geometry" />
        </mxCell>
        <mxCell id="6QDcUnihvjDoQdgqCpfs-3" value="&lt;div&gt;Previous&lt;/div&gt;(Analyze)" style="shape=step;perimeter=stepPerimeter;whiteSpace=wrap;html=1;fixedSize=1;" parent="6QDcUnihvjDoQdgqCpfs-1" vertex="1">
          <mxGeometry x="24" y="60" width="120" height="40" as="geometry" />
        </mxCell>
        <mxCell id="6QDcUnihvjDoQdgqCpfs-4" value="" style="edgeStyle=orthogonalEdgeStyle;rounded=0;orthogonalLoop=1;jettySize=auto;html=1;exitX=1;exitY=0.5;exitDx=0;exitDy=0;entryX=0;entryY=0.5;entryDx=0;entryDy=0;" parent="6QDcUnihvjDoQdgqCpfs-1" source="6QDcUnihvjDoQdgqCpfs-6" target="6QDcUnihvjDoQdgqCpfs-8" edge="1">
          <mxGeometry relative="1" as="geometry">
            <mxPoint x="475" y="180" as="sourcePoint" />
            <mxPoint x="549" y="180" as="targetPoint" />
          </mxGeometry>
        </mxCell>
        <mxCell id="6QDcUnihvjDoQdgqCpfs-6" value="&lt;div&gt;Contain&lt;/div&gt;&lt;div&gt;Affected &lt;br&gt;&lt;/div&gt;&lt;div&gt;Host&lt;/div&gt;" style="whiteSpace=wrap;html=1;" parent="6QDcUnihvjDoQdgqCpfs-1" vertex="1">
          <mxGeometry x="365" y="150" width="120" height="60" as="geometry" />
        </mxCell>
        <mxCell id="6QDcUnihvjDoQdgqCpfs-7" value="" style="edgeStyle=orthogonalEdgeStyle;rounded=0;orthogonalLoop=1;jettySize=auto;html=1;entryX=0;entryY=0.5;entryDx=0;entryDy=0;" parent="6QDcUnihvjDoQdgqCpfs-1" source="6QDcUnihvjDoQdgqCpfs-8" target="RG3kvfUS08WQ4xc0fuHZ-0" edge="1">
          <mxGeometry relative="1" as="geometry">
            <mxPoint x="755" y="180" as="targetPoint" />
          </mxGeometry>
        </mxCell>
        <mxCell id="6QDcUnihvjDoQdgqCpfs-8" value="&lt;div&gt;Action Taken &lt;br&gt;&lt;/div&gt;&lt;div&gt;by User/Computer&lt;/div&gt;" style="whiteSpace=wrap;html=1;" parent="6QDcUnihvjDoQdgqCpfs-1" vertex="1">
          <mxGeometry x="565" y="150" width="120" height="60" as="geometry" />
        </mxCell>
        <mxCell id="KaVc-XBaMRETR8z437C_-29" style="edgeStyle=orthogonalEdgeStyle;rounded=0;orthogonalLoop=1;jettySize=auto;html=1;exitX=1;exitY=0.5;exitDx=0;exitDy=0;entryX=1;entryY=1;entryDx=0;entryDy=0;" parent="6QDcUnihvjDoQdgqCpfs-1" source="6QDcUnihvjDoQdgqCpfs-11" target="ZH3C5kljJuEE9F5i6G9V-0" edge="1">
          <mxGeometry relative="1" as="geometry">
            <Array as="points">
              <mxPoint x="1140" y="90" />
              <mxPoint x="1140" y="398" />
            </Array>
          </mxGeometry>
        </mxCell>
        <mxCell id="6QDcUnihvjDoQdgqCpfs-11" value="&lt;div&gt;Wipe/Destroy&lt;/div&gt;&lt;div&gt;System&lt;/div&gt;" style="whiteSpace=wrap;html=1;" parent="6QDcUnihvjDoQdgqCpfs-1" vertex="1">
          <mxGeometry x="970" y="60" width="120" height="60" as="geometry" />
        </mxCell>
        <mxCell id="6QDcUnihvjDoQdgqCpfs-15" style="edgeStyle=orthogonalEdgeStyle;rounded=0;orthogonalLoop=1;jettySize=auto;html=1;exitX=0;exitY=0.5;exitDx=0;exitDy=0;entryX=1;entryY=0.5;entryDx=0;entryDy=0;" parent="6QDcUnihvjDoQdgqCpfs-1" source="6QDcUnihvjDoQdgqCpfs-33" target="6QDcUnihvjDoQdgqCpfs-20" edge="1">
          <mxGeometry relative="1" as="geometry">
            <mxPoint x="620" y="765" as="sourcePoint" />
          </mxGeometry>
        </mxCell>
        <mxCell id="6QDcUnihvjDoQdgqCpfs-16" style="edgeStyle=orthogonalEdgeStyle;rounded=0;orthogonalLoop=1;jettySize=auto;html=1;exitX=0;exitY=0.5;exitDx=0;exitDy=0;entryX=1;entryY=0.5;entryDx=0;entryDy=0;" parent="6QDcUnihvjDoQdgqCpfs-1" source="6QDcUnihvjDoQdgqCpfs-20" target="6QDcUnihvjDoQdgqCpfs-25" edge="1">
          <mxGeometry relative="1" as="geometry" />
        </mxCell>
        <mxCell id="6QDcUnihvjDoQdgqCpfs-17" value="No" style="edgeLabel;html=1;align=center;verticalAlign=middle;resizable=0;points=[];" parent="6QDcUnihvjDoQdgqCpfs-16" vertex="1" connectable="0">
          <mxGeometry x="0.0167" relative="1" as="geometry">
            <mxPoint as="offset" />
          </mxGeometry>
        </mxCell>
        <mxCell id="6QDcUnihvjDoQdgqCpfs-18" style="edgeStyle=orthogonalEdgeStyle;rounded=0;orthogonalLoop=1;jettySize=auto;html=1;exitX=0.5;exitY=1;exitDx=0;exitDy=0;entryX=0;entryY=0.5;entryDx=0;entryDy=0;" parent="6QDcUnihvjDoQdgqCpfs-1" source="6QDcUnihvjDoQdgqCpfs-20" target="6QDcUnihvjDoQdgqCpfs-26" edge="1">
          <mxGeometry relative="1" as="geometry">
            <mxPoint x="425" y="860" as="sourcePoint" />
            <Array as="points">
              <mxPoint x="425" y="875" />
            </Array>
            <mxPoint x="840" y="940" as="targetPoint" />
          </mxGeometry>
        </mxCell>
        <mxCell id="6QDcUnihvjDoQdgqCpfs-19" value="Yes" style="edgeLabel;html=1;align=center;verticalAlign=middle;resizable=0;points=[];" parent="6QDcUnihvjDoQdgqCpfs-18" vertex="1" connectable="0">
          <mxGeometry x="-0.8554" y="1" relative="1" as="geometry">
            <mxPoint as="offset" />
          </mxGeometry>
        </mxCell>
        <mxCell id="6QDcUnihvjDoQdgqCpfs-20" value="&lt;div&gt;All Affected &lt;br&gt;&lt;/div&gt;&lt;div&gt;Endpoints &lt;br&gt;&lt;/div&gt;&lt;div&gt;Contained&lt;/div&gt;" style="rhombus;whiteSpace=wrap;html=1;shadow=0;fontFamily=Helvetica;fontSize=12;align=center;strokeWidth=1;spacing=6;spacingTop=-4;" parent="6QDcUnihvjDoQdgqCpfs-1" vertex="1">
          <mxGeometry x="360" y="680" width="130" height="110" as="geometry" />
        </mxCell>
        <mxCell id="6QDcUnihvjDoQdgqCpfs-23" style="edgeStyle=orthogonalEdgeStyle;rounded=0;orthogonalLoop=1;jettySize=auto;html=1;exitX=0.5;exitY=1;exitDx=0;exitDy=0;entryX=1;entryY=0.5;entryDx=0;entryDy=0;" parent="6QDcUnihvjDoQdgqCpfs-1" source="6QDcUnihvjDoQdgqCpfs-25" target="6QDcUnihvjDoQdgqCpfs-28" edge="1">
          <mxGeometry relative="1" as="geometry">
            <Array as="points">
              <mxPoint x="235" y="875" />
            </Array>
          </mxGeometry>
        </mxCell>
        <mxCell id="6QDcUnihvjDoQdgqCpfs-24" value="Yes" style="edgeLabel;html=1;align=center;verticalAlign=middle;resizable=0;points=[];" parent="6QDcUnihvjDoQdgqCpfs-23" vertex="1" connectable="0">
          <mxGeometry x="-0.5407" y="1" relative="1" as="geometry">
            <mxPoint as="offset" />
          </mxGeometry>
        </mxCell>
        <mxCell id="KaVc-XBaMRETR8z437C_-14" style="edgeStyle=orthogonalEdgeStyle;rounded=0;orthogonalLoop=1;jettySize=auto;html=1;exitX=0;exitY=0.5;exitDx=0;exitDy=0;entryX=0;entryY=0.5;entryDx=0;entryDy=0;" parent="6QDcUnihvjDoQdgqCpfs-1" source="6QDcUnihvjDoQdgqCpfs-25" target="qxH52fe12lm0WVoAYw8L-0" edge="1">
          <mxGeometry relative="1" as="geometry">
            <Array as="points">
              <mxPoint x="110" y="735" />
              <mxPoint x="110" y="180" />
            </Array>
          </mxGeometry>
        </mxCell>
        <mxCell id="KaVc-XBaMRETR8z437C_-16" value="No" style="edgeLabel;html=1;align=center;verticalAlign=middle;resizable=0;points=[];" parent="KaVc-XBaMRETR8z437C_-14" vertex="1" connectable="0">
          <mxGeometry x="-0.9141" y="-2" relative="1" as="geometry">
            <mxPoint as="offset" />
          </mxGeometry>
        </mxCell>
        <mxCell id="6QDcUnihvjDoQdgqCpfs-25" value="&lt;div&gt;New IOC&lt;/div&gt;&lt;div&gt;Discovered&lt;br&gt;&lt;/div&gt;" style="rhombus;whiteSpace=wrap;html=1;shadow=0;fontFamily=Helvetica;fontSize=12;align=center;strokeWidth=1;spacing=6;spacingTop=-4;" parent="6QDcUnihvjDoQdgqCpfs-1" vertex="1">
          <mxGeometry x="170" y="680" width="130" height="110" as="geometry" />
        </mxCell>
        <mxCell id="6QDcUnihvjDoQdgqCpfs-26" value="&lt;div&gt;Next&lt;/div&gt;(Recover)" style="shape=step;perimeter=stepPerimeter;whiteSpace=wrap;html=1;fixedSize=1;" parent="6QDcUnihvjDoQdgqCpfs-1" vertex="1">
          <mxGeometry x="800" y="855" width="120" height="40" as="geometry" />
        </mxCell>
        <mxCell id="6QDcUnihvjDoQdgqCpfs-28" value="&lt;div&gt;Previous&lt;/div&gt;(Analyze)" style="shape=step;perimeter=stepPerimeter;whiteSpace=wrap;html=1;fixedSize=1;flipV=0;flipH=1;" parent="6QDcUnihvjDoQdgqCpfs-1" vertex="1">
          <mxGeometry x="24" y="855" width="120" height="40" as="geometry" />
        </mxCell>
        <mxCell id="6QDcUnihvjDoQdgqCpfs-29" value="&lt;div align=&quot;left&quot;&gt;&lt;ul&gt;&lt;li&gt;Apply containment with EDR&lt;/li&gt;&lt;li&gt;Update &amp;lt;EDR / Proxy&amp;gt; policies&lt;br&gt;&lt;/li&gt;&lt;li&gt;Blackhole DNS &lt;br&gt;&lt;/li&gt;&lt;li&gt;Submit links to partners&lt;br&gt;&lt;/li&gt;&lt;/ul&gt;&lt;/div&gt;" style="text;html=1;resizable=0;autosize=1;align=center;verticalAlign=middle;points=[];fillColor=none;strokeColor=none;rounded=0;" parent="6QDcUnihvjDoQdgqCpfs-1" vertex="1">
          <mxGeometry x="315" y="210" width="220" height="90" as="geometry" />
        </mxCell>
        <mxCell id="6QDcUnihvjDoQdgqCpfs-30" value="&lt;div align=&quot;left&quot;&gt;&lt;ul&gt;&lt;li&gt;Have &amp;lt;interacted with threat&amp;gt;&lt;br&gt;&lt;/li&gt;&lt;li&gt;Determine &amp;lt;AV / EDR ACTIONS&amp;gt;&lt;br&gt;&lt;/li&gt;&lt;/ul&gt;&lt;/div&gt;" style="text;html=1;resizable=0;autosize=1;align=center;verticalAlign=middle;points=[];fillColor=none;strokeColor=none;rounded=0;" parent="6QDcUnihvjDoQdgqCpfs-1" vertex="1">
          <mxGeometry x="525" y="210" width="240" height="60" as="geometry" />
        </mxCell>
        <mxCell id="6QDcUnihvjDoQdgqCpfs-31" value="&lt;div align=&quot;left&quot;&gt;&lt;ul&gt;&lt;li&gt;Delete all IOCs&lt;/li&gt;&lt;/ul&gt;&lt;/div&gt;" style="text;html=1;resizable=0;autosize=1;align=center;verticalAlign=middle;points=[];fillColor=none;strokeColor=none;rounded=0;" parent="6QDcUnihvjDoQdgqCpfs-1" vertex="1">
          <mxGeometry x="940" y="320" width="140" height="40" as="geometry" />
        </mxCell>
        <mxCell id="6QDcUnihvjDoQdgqCpfs-32" value="&lt;div align=&quot;left&quot;&gt;&lt;ul&gt;&lt;li&gt;Monitor for:&lt;br&gt;&lt;/li&gt;&lt;ul&gt;&lt;li&gt;Internet connections to IOC&lt;br&gt;&lt;/li&gt;&lt;/ul&gt;&lt;ul&gt;&lt;li&gt;New files that matches hashes identifies&lt;/li&gt;&lt;li&gt;Processes&lt;br&gt;&lt;/li&gt;&lt;li&gt;Behaviors that match TTPs&lt;br&gt;&lt;/li&gt;&lt;/ul&gt;&lt;/ul&gt;&lt;/div&gt;" style="text;html=1;resizable=0;autosize=1;align=center;verticalAlign=middle;points=[];fillColor=none;strokeColor=none;rounded=0;" parent="6QDcUnihvjDoQdgqCpfs-1" vertex="1">
          <mxGeometry x="530" y="765" width="310" height="100" as="geometry" />
        </mxCell>
        <mxCell id="6QDcUnihvjDoQdgqCpfs-33" value="&lt;div&gt;Close&lt;/div&gt;&lt;div&gt;Monitoring&lt;br&gt;&lt;/div&gt;" style="whiteSpace=wrap;html=1;" parent="6QDcUnihvjDoQdgqCpfs-1" vertex="1">
          <mxGeometry x="565" y="705" width="120" height="60" as="geometry" />
        </mxCell>
        <mxCell id="qxH52fe12lm0WVoAYw8L-3" style="edgeStyle=orthogonalEdgeStyle;rounded=0;orthogonalLoop=1;jettySize=auto;html=1;exitX=1;exitY=0.5;exitDx=0;exitDy=0;entryX=0;entryY=0.5;entryDx=0;entryDy=0;" parent="6QDcUnihvjDoQdgqCpfs-1" source="qxH52fe12lm0WVoAYw8L-0" target="6QDcUnihvjDoQdgqCpfs-6" edge="1">
          <mxGeometry relative="1" as="geometry" />
        </mxCell>
        <mxCell id="qxH52fe12lm0WVoAYw8L-5" value="Yes" style="edgeLabel;html=1;align=center;verticalAlign=middle;resizable=0;points=[];" parent="qxH52fe12lm0WVoAYw8L-3" vertex="1" connectable="0">
          <mxGeometry x="-0.2" relative="1" as="geometry">
            <mxPoint as="offset" />
          </mxGeometry>
        </mxCell>
        <mxCell id="qxH52fe12lm0WVoAYw8L-6" value="No" style="edgeStyle=orthogonalEdgeStyle;rounded=0;orthogonalLoop=1;jettySize=auto;html=1;exitX=0.5;exitY=1;exitDx=0;exitDy=0;entryX=0.5;entryY=0;entryDx=0;entryDy=0;" parent="6QDcUnihvjDoQdgqCpfs-1" source="qxH52fe12lm0WVoAYw8L-0" target="KaVc-XBaMRETR8z437C_-0" edge="1">
          <mxGeometry relative="1" as="geometry">
            <mxPoint x="236" y="325" as="targetPoint" />
          </mxGeometry>
        </mxCell>
        <mxCell id="qxH52fe12lm0WVoAYw8L-0" value="&lt;div&gt;Host &lt;br&gt;&lt;/div&gt;&lt;div&gt;Have&lt;br&gt;&lt;/div&gt;&lt;div&gt;EDR&lt;br&gt;&lt;/div&gt;" style="rhombus;whiteSpace=wrap;html=1;shadow=0;fontFamily=Helvetica;fontSize=12;align=center;strokeWidth=1;spacing=6;spacingTop=-4;" parent="6QDcUnihvjDoQdgqCpfs-1" vertex="1">
          <mxGeometry x="170" y="125" width="130" height="110" as="geometry" />
        </mxCell>
        <mxCell id="KaVc-XBaMRETR8z437C_-18" value="Yes" style="edgeStyle=orthogonalEdgeStyle;rounded=0;orthogonalLoop=1;jettySize=auto;html=1;" parent="6QDcUnihvjDoQdgqCpfs-1" source="ZH3C5kljJuEE9F5i6G9V-0" target="KaVc-XBaMRETR8z437C_-17" edge="1">
          <mxGeometry relative="1" as="geometry" />
        </mxCell>
        <mxCell id="KaVc-XBaMRETR8z437C_-30" style="edgeStyle=orthogonalEdgeStyle;rounded=0;orthogonalLoop=1;jettySize=auto;html=1;exitX=0.5;exitY=1;exitDx=0;exitDy=0;entryX=1;entryY=0.5;entryDx=0;entryDy=0;" parent="6QDcUnihvjDoQdgqCpfs-1" source="ZH3C5kljJuEE9F5i6G9V-0" target="6QDcUnihvjDoQdgqCpfs-33" edge="1">
          <mxGeometry relative="1" as="geometry" />
        </mxCell>
        <mxCell id="KaVc-XBaMRETR8z437C_-31" value="No" style="edgeLabel;html=1;align=center;verticalAlign=middle;resizable=0;points=[];" parent="KaVc-XBaMRETR8z437C_-30" vertex="1" connectable="0">
          <mxGeometry x="-0.8356" relative="1" as="geometry">
            <mxPoint as="offset" />
          </mxGeometry>
        </mxCell>
        <mxCell id="ZH3C5kljJuEE9F5i6G9V-0" value="&lt;div&gt;Vendor &lt;br&gt;&lt;/div&gt;&lt;div&gt;Provided&lt;/div&gt;&lt;div&gt;New Sigs&lt;br&gt;&lt;/div&gt;" style="rhombus;whiteSpace=wrap;html=1;shadow=0;fontFamily=Helvetica;fontSize=12;align=center;strokeWidth=1;spacing=6;spacingTop=-4;" parent="6QDcUnihvjDoQdgqCpfs-1" vertex="1">
          <mxGeometry x="760" y="315" width="130" height="110" as="geometry" />
        </mxCell>
        <mxCell id="KaVc-XBaMRETR8z437C_-23" value="" style="edgeStyle=orthogonalEdgeStyle;rounded=0;orthogonalLoop=1;jettySize=auto;html=1;" parent="6QDcUnihvjDoQdgqCpfs-1" source="RG3kvfUS08WQ4xc0fuHZ-0" target="6QDcUnihvjDoQdgqCpfs-11" edge="1">
          <mxGeometry relative="1" as="geometry">
            <Array as="points">
              <mxPoint x="825" y="90" />
            </Array>
          </mxGeometry>
        </mxCell>
        <mxCell id="KaVc-XBaMRETR8z437C_-24" value="Yes" style="edgeLabel;html=1;align=center;verticalAlign=middle;resizable=0;points=[];" parent="KaVc-XBaMRETR8z437C_-23" vertex="1" connectable="0">
          <mxGeometry x="-0.275" y="1" relative="1" as="geometry">
            <mxPoint as="offset" />
          </mxGeometry>
        </mxCell>
        <mxCell id="KaVc-XBaMRETR8z437C_-26" style="edgeStyle=orthogonalEdgeStyle;rounded=0;orthogonalLoop=1;jettySize=auto;html=1;exitX=0.5;exitY=1;exitDx=0;exitDy=0;entryX=0;entryY=0.5;entryDx=0;entryDy=0;" parent="6QDcUnihvjDoQdgqCpfs-1" source="RG3kvfUS08WQ4xc0fuHZ-0" target="KaVc-XBaMRETR8z437C_-25" edge="1">
          <mxGeometry relative="1" as="geometry" />
        </mxCell>
        <mxCell id="KaVc-XBaMRETR8z437C_-27" value="No" style="edgeLabel;html=1;align=center;verticalAlign=middle;resizable=0;points=[];" parent="KaVc-XBaMRETR8z437C_-26" vertex="1" connectable="0">
          <mxGeometry x="-0.45" y="29" relative="1" as="geometry">
            <mxPoint x="29" y="30" as="offset" />
          </mxGeometry>
        </mxCell>
        <mxCell id="RG3kvfUS08WQ4xc0fuHZ-0" value="Malware&lt;br&gt;&lt;div&gt;Ran as&lt;/div&gt;&lt;div&gt;Admin/Root&lt;br&gt;&lt;/div&gt;" style="rhombus;whiteSpace=wrap;html=1;shadow=0;fontFamily=Helvetica;fontSize=12;align=center;strokeWidth=1;spacing=6;spacingTop=-4;" parent="6QDcUnihvjDoQdgqCpfs-1" vertex="1">
          <mxGeometry x="760" y="125" width="130" height="110" as="geometry" />
        </mxCell>
        <mxCell id="KaVc-XBaMRETR8z437C_-3" value="No" style="edgeStyle=orthogonalEdgeStyle;rounded=0;orthogonalLoop=1;jettySize=auto;html=1;" parent="6QDcUnihvjDoQdgqCpfs-1" source="KaVc-XBaMRETR8z437C_-0" target="KaVc-XBaMRETR8z437C_-1" edge="1">
          <mxGeometry relative="1" as="geometry" />
        </mxCell>
        <mxCell id="KaVc-XBaMRETR8z437C_-5" value="" style="edgeStyle=orthogonalEdgeStyle;rounded=0;orthogonalLoop=1;jettySize=auto;html=1;" parent="6QDcUnihvjDoQdgqCpfs-1" source="KaVc-XBaMRETR8z437C_-0" target="KaVc-XBaMRETR8z437C_-4" edge="1">
          <mxGeometry relative="1" as="geometry" />
        </mxCell>
        <mxCell id="KaVc-XBaMRETR8z437C_-7" value="Yes" style="edgeLabel;html=1;align=center;verticalAlign=middle;resizable=0;points=[];" parent="KaVc-XBaMRETR8z437C_-5" vertex="1" connectable="0">
          <mxGeometry x="-0.3231" y="-1" relative="1" as="geometry">
            <mxPoint as="offset" />
          </mxGeometry>
        </mxCell>
        <mxCell id="KaVc-XBaMRETR8z437C_-0" value="&lt;div&gt;Can We&lt;/div&gt;&lt;div&gt;Install EDR&lt;/div&gt;&lt;div&gt;on Host&lt;br&gt;&lt;/div&gt;" style="rhombus;whiteSpace=wrap;html=1;shadow=0;fontFamily=Helvetica;fontSize=12;align=center;strokeWidth=1;spacing=6;spacingTop=-4;" parent="6QDcUnihvjDoQdgqCpfs-1" vertex="1">
          <mxGeometry x="170" y="315" width="130" height="110" as="geometry" />
        </mxCell>
        <mxCell id="CobgSj3-44IDaS214RVv-0" style="edgeStyle=orthogonalEdgeStyle;rounded=0;orthogonalLoop=1;jettySize=auto;html=1;exitX=1;exitY=0.5;exitDx=0;exitDy=0;entryX=0;entryY=0.75;entryDx=0;entryDy=0;" parent="6QDcUnihvjDoQdgqCpfs-1" source="KaVc-XBaMRETR8z437C_-1" target="6QDcUnihvjDoQdgqCpfs-8" edge="1">
          <mxGeometry relative="1" as="geometry">
            <Array as="points">
              <mxPoint x="330" y="540" />
              <mxPoint x="330" y="450" />
              <mxPoint x="540" y="450" />
              <mxPoint x="540" y="195" />
            </Array>
          </mxGeometry>
        </mxCell>
        <mxCell id="KaVc-XBaMRETR8z437C_-1" value="&lt;div&gt;Isolate / Unplug&lt;/div&gt;&lt;div&gt;Host&lt;br&gt;&lt;/div&gt;" style="whiteSpace=wrap;html=1;" parent="6QDcUnihvjDoQdgqCpfs-1" vertex="1">
          <mxGeometry x="175" y="510" width="120" height="60" as="geometry" />
        </mxCell>
        <mxCell id="KaVc-XBaMRETR8z437C_-2" value="&lt;div align=&quot;left&quot;&gt;&lt;ul&gt;&lt;li&gt;Apply one of the following:&lt;/li&gt;&lt;ul&gt;&lt;li&gt;Remove Virtual interface&lt;br&gt;&lt;/li&gt;&lt;li&gt;Put in &quot;Dirty&quot; VLAN&lt;br&gt;&lt;/li&gt;&lt;li&gt;Shutdown switch port&lt;br&gt;&lt;/li&gt;&lt;/ul&gt;&lt;/ul&gt;&lt;/div&gt;" style="text;html=1;resizable=0;autosize=1;align=center;verticalAlign=middle;points=[];fillColor=none;strokeColor=none;rounded=0;" parent="6QDcUnihvjDoQdgqCpfs-1" vertex="1">
          <mxGeometry x="130" y="570" width="230" height="90" as="geometry" />
        </mxCell>
        <mxCell id="KaVc-XBaMRETR8z437C_-6" style="edgeStyle=orthogonalEdgeStyle;rounded=0;orthogonalLoop=1;jettySize=auto;html=1;entryX=0;entryY=0.75;entryDx=0;entryDy=0;" parent="6QDcUnihvjDoQdgqCpfs-1" source="KaVc-XBaMRETR8z437C_-4" target="6QDcUnihvjDoQdgqCpfs-6" edge="1">
          <mxGeometry relative="1" as="geometry">
            <Array as="points">
              <mxPoint x="425" y="320" />
              <mxPoint x="330" y="320" />
              <mxPoint x="330" y="195" />
            </Array>
          </mxGeometry>
        </mxCell>
        <mxCell id="KaVc-XBaMRETR8z437C_-13" value="" style="edgeStyle=orthogonalEdgeStyle;rounded=0;orthogonalLoop=1;jettySize=auto;html=1;" parent="6QDcUnihvjDoQdgqCpfs-1" source="KaVc-XBaMRETR8z437C_-4" target="KaVc-XBaMRETR8z437C_-8" edge="1">
          <mxGeometry relative="1" as="geometry" />
        </mxCell>
        <mxCell id="KaVc-XBaMRETR8z437C_-4" value="Install&lt;br&gt;EDR" style="whiteSpace=wrap;html=1;" parent="6QDcUnihvjDoQdgqCpfs-1" vertex="1">
          <mxGeometry x="365" y="340" width="120" height="60" as="geometry" />
        </mxCell>
        <mxCell id="KaVc-XBaMRETR8z437C_-10" value="" style="edgeStyle=orthogonalEdgeStyle;rounded=0;orthogonalLoop=1;jettySize=auto;html=1;exitX=0.5;exitY=1;exitDx=0;exitDy=0;entryX=0.117;entryY=0.55;entryDx=0;entryDy=0;entryPerimeter=0;" parent="6QDcUnihvjDoQdgqCpfs-1" source="KaVc-XBaMRETR8z437C_-8" target="KaVc-XBaMRETR8z437C_-11" edge="1">
          <mxGeometry relative="1" as="geometry">
            <mxPoint x="551" y="540" as="targetPoint" />
            <Array as="points">
              <mxPoint x="425" y="622" />
            </Array>
          </mxGeometry>
        </mxCell>
        <mxCell id="KaVc-XBaMRETR8z437C_-12" value="Yes" style="edgeLabel;html=1;align=center;verticalAlign=middle;resizable=0;points=[];" parent="KaVc-XBaMRETR8z437C_-10" vertex="1" connectable="0">
          <mxGeometry x="-0.3115" y="-1" relative="1" as="geometry">
            <mxPoint as="offset" />
          </mxGeometry>
        </mxCell>
        <mxCell id="KaVc-XBaMRETR8z437C_-8" value="&lt;div&gt;Host &lt;br&gt;&lt;/div&gt;&lt;div&gt;Belongs to &lt;br&gt;&lt;/div&gt;&lt;div&gt;New Client&lt;br&gt;&lt;/div&gt;" style="rhombus;whiteSpace=wrap;html=1;shadow=0;fontFamily=Helvetica;fontSize=12;align=center;strokeWidth=1;spacing=6;spacingTop=-4;" parent="6QDcUnihvjDoQdgqCpfs-1" vertex="1">
          <mxGeometry x="360" y="485" width="130" height="110" as="geometry" />
        </mxCell>
        <mxCell id="KaVc-XBaMRETR8z437C_-11" value="&lt;div&gt;New Client&lt;/div&gt;&lt;div&gt;Process&lt;br&gt;&lt;/div&gt;" style="shape=step;perimeter=stepPerimeter;whiteSpace=wrap;html=1;fixedSize=1;" parent="6QDcUnihvjDoQdgqCpfs-1" vertex="1">
          <mxGeometry x="485" y="600" width="120" height="40" as="geometry" />
        </mxCell>
        <mxCell id="KaVc-XBaMRETR8z437C_-21" value="" style="edgeStyle=orthogonalEdgeStyle;rounded=0;orthogonalLoop=1;jettySize=auto;html=1;" parent="6QDcUnihvjDoQdgqCpfs-1" source="KaVc-XBaMRETR8z437C_-17" target="KaVc-XBaMRETR8z437C_-20" edge="1">
          <mxGeometry relative="1" as="geometry" />
        </mxCell>
        <mxCell id="KaVc-XBaMRETR8z437C_-17" value="&lt;div&gt;Update/&lt;br&gt;&lt;/div&gt;&lt;div&gt;Upgrade&lt;br&gt;&lt;/div&gt;AV / EDR" style="whiteSpace=wrap;html=1;" parent="6QDcUnihvjDoQdgqCpfs-1" vertex="1">
          <mxGeometry x="565" y="340" width="120" height="60" as="geometry" />
        </mxCell>
        <mxCell id="KaVc-XBaMRETR8z437C_-22" style="edgeStyle=orthogonalEdgeStyle;rounded=0;orthogonalLoop=1;jettySize=auto;html=1;exitX=0.5;exitY=1;exitDx=0;exitDy=0;entryX=0.5;entryY=0;entryDx=0;entryDy=0;" parent="6QDcUnihvjDoQdgqCpfs-1" source="KaVc-XBaMRETR8z437C_-20" target="6QDcUnihvjDoQdgqCpfs-33" edge="1">
          <mxGeometry relative="1" as="geometry">
            <mxPoint x="625" y="670" as="targetPoint" />
          </mxGeometry>
        </mxCell>
        <mxCell id="KaVc-XBaMRETR8z437C_-20" value="Scan Systems" style="whiteSpace=wrap;html=1;" parent="6QDcUnihvjDoQdgqCpfs-1" vertex="1">
          <mxGeometry x="565" y="510" width="120" height="60" as="geometry" />
        </mxCell>
        <mxCell id="KaVc-XBaMRETR8z437C_-28" style="edgeStyle=orthogonalEdgeStyle;rounded=0;orthogonalLoop=1;jettySize=auto;html=1;entryX=1;entryY=0.5;entryDx=0;entryDy=0;exitX=1;exitY=0.5;exitDx=0;exitDy=0;" parent="6QDcUnihvjDoQdgqCpfs-1" source="KaVc-XBaMRETR8z437C_-25" target="ZH3C5kljJuEE9F5i6G9V-0" edge="1">
          <mxGeometry relative="1" as="geometry">
            <Array as="points">
              <mxPoint x="1110" y="290" />
              <mxPoint x="1110" y="370" />
            </Array>
          </mxGeometry>
        </mxCell>
        <mxCell id="KaVc-XBaMRETR8z437C_-25" value="Containment&lt;br&gt;Actions" style="whiteSpace=wrap;html=1;" parent="6QDcUnihvjDoQdgqCpfs-1" vertex="1">
          <mxGeometry x="970" y="260" width="120" height="60" as="geometry" />
        </mxCell>
        <mxCell id="BgH3lvqAzpArPcKZbwP1-0" value="MC4" style="whiteSpace=wrap;html=1;aspect=fixed;fillColor=#E6E6E6;rotation=0;" parent="6QDcUnihvjDoQdgqCpfs-1" vertex="1">
          <mxGeometry x="365" y="120" width="30" height="30" as="geometry" />
        </mxCell>
        <mxCell id="BgH3lvqAzpArPcKZbwP1-1" value="MC7" style="whiteSpace=wrap;html=1;aspect=fixed;fillColor=#E6E6E6;rotation=0;" parent="6QDcUnihvjDoQdgqCpfs-1" vertex="1">
          <mxGeometry x="565" y="120" width="30" height="30" as="geometry" />
        </mxCell>
        <mxCell id="BgH3lvqAzpArPcKZbwP1-2" value="MC9" style="whiteSpace=wrap;html=1;aspect=fixed;fillColor=#E6E6E6;rotation=0;" parent="6QDcUnihvjDoQdgqCpfs-1" vertex="1">
          <mxGeometry x="970" y="30" width="30" height="30" as="geometry" />
        </mxCell>
        <mxCell id="BgH3lvqAzpArPcKZbwP1-3" value="MA5" style="whiteSpace=wrap;html=1;aspect=fixed;fillColor=#E6E6E6;rotation=0;" parent="6QDcUnihvjDoQdgqCpfs-1" vertex="1">
          <mxGeometry x="455" y="310" width="30" height="30" as="geometry" />
        </mxCell>
        <mxCell id="BgH3lvqAzpArPcKZbwP1-4" value="MC12" style="whiteSpace=wrap;html=1;aspect=fixed;fillColor=#E6E6E6;rotation=0;fontSize=10;" parent="6QDcUnihvjDoQdgqCpfs-1" vertex="1">
          <mxGeometry x="565" y="310" width="30" height="30" as="geometry" />
        </mxCell>
        <mxCell id="BgH3lvqAzpArPcKZbwP1-5" value="MC10" style="whiteSpace=wrap;html=1;aspect=fixed;fillColor=#E6E6E6;rotation=0;fontSize=10;" parent="6QDcUnihvjDoQdgqCpfs-1" vertex="1">
          <mxGeometry x="970" y="230" width="30" height="30" as="geometry" />
        </mxCell>
        <mxCell id="BgH3lvqAzpArPcKZbwP1-6" value="MC13" style="whiteSpace=wrap;html=1;aspect=fixed;fillColor=#E6E6E6;rotation=0;fontSize=10;" parent="6QDcUnihvjDoQdgqCpfs-1" vertex="1">
          <mxGeometry x="565" y="480" width="30" height="30" as="geometry" />
        </mxCell>
        <mxCell id="BgH3lvqAzpArPcKZbwP1-7" value="MC14" style="whiteSpace=wrap;html=1;aspect=fixed;fillColor=#E6E6E6;rotation=0;fontSize=10;" parent="6QDcUnihvjDoQdgqCpfs-1" vertex="1">
          <mxGeometry x="565" y="675" width="30" height="30" as="geometry" />
        </mxCell>
        <mxCell id="BgH3lvqAzpArPcKZbwP1-8" value="MC3" style="whiteSpace=wrap;html=1;aspect=fixed;fillColor=#E6E6E6;rotation=0;" parent="6QDcUnihvjDoQdgqCpfs-1" vertex="1">
          <mxGeometry x="175" y="480" width="30" height="30" as="geometry" />
        </mxCell>
      </root>
    </mxGraphModel>
  </diagram>
  <diagram name="Recover" id="ETE9T7RXaiqTyr_UXs9i">
    <mxGraphModel dx="1186" dy="767" grid="1" gridSize="10" guides="1" tooltips="1" connect="1" arrows="1" fold="1" page="1" pageScale="1" pageWidth="1169" pageHeight="827" math="0" shadow="0">
      <root>
        <mxCell id="LNGRzd5pgqN2r4LYpTMb-0" />
        <mxCell id="LNGRzd5pgqN2r4LYpTMb-1" parent="LNGRzd5pgqN2r4LYpTMb-0" />
        <mxCell id="auvZfYgGDNCCga0ukyk_-1" value="&lt;div style=&quot;font-size: 12px&quot;&gt;MR9&lt;/div&gt;" style="whiteSpace=wrap;html=1;aspect=fixed;fillColor=#E6E6E6;rotation=319;fontSize=12;" parent="LNGRzd5pgqN2r4LYpTMb-1" vertex="1">
          <mxGeometry x="567" y="571" width="30" height="30" as="geometry" />
        </mxCell>
        <mxCell id="auvZfYgGDNCCga0ukyk_-0" value="&lt;div style=&quot;font-size: 12px&quot;&gt;MR6&lt;/div&gt;" style="whiteSpace=wrap;html=1;aspect=fixed;fillColor=#E6E6E6;rotation=319;fontSize=12;" parent="LNGRzd5pgqN2r4LYpTMb-1" vertex="1">
          <mxGeometry x="570" y="390" width="30" height="30" as="geometry" />
        </mxCell>
        <mxCell id="LNGRzd5pgqN2r4LYpTMb-2" style="edgeStyle=orthogonalEdgeStyle;rounded=0;orthogonalLoop=1;jettySize=auto;html=1;exitX=0.5;exitY=1;exitDx=0;exitDy=0;" parent="LNGRzd5pgqN2r4LYpTMb-1" edge="1">
          <mxGeometry relative="1" as="geometry">
            <mxPoint x="80" y="100" as="sourcePoint" />
            <mxPoint x="80" y="100" as="targetPoint" />
          </mxGeometry>
        </mxCell>
        <mxCell id="ck7bENQA2yznrZ6UnM8M-5" value="" style="edgeStyle=orthogonalEdgeStyle;rounded=0;orthogonalLoop=1;jettySize=auto;html=1;entryX=0.5;entryY=0;entryDx=0;entryDy=0;" parent="LNGRzd5pgqN2r4LYpTMb-1" source="LNGRzd5pgqN2r4LYpTMb-3" target="gJsGpBBSAAJUGw66HAuJ-0" edge="1">
          <mxGeometry relative="1" as="geometry">
            <Array as="points">
              <mxPoint x="625" y="550" />
              <mxPoint x="315" y="550" />
            </Array>
          </mxGeometry>
        </mxCell>
        <mxCell id="ck7bENQA2yznrZ6UnM8M-8" value="Yes" style="edgeLabel;html=1;align=center;verticalAlign=middle;resizable=0;points=[];" parent="ck7bENQA2yznrZ6UnM8M-5" vertex="1" connectable="0">
          <mxGeometry x="-0.2" relative="1" as="geometry">
            <mxPoint as="offset" />
          </mxGeometry>
        </mxCell>
        <mxCell id="LNGRzd5pgqN2r4LYpTMb-3" value="&lt;div&gt;All Affected &lt;br&gt;&lt;/div&gt;&lt;div&gt;Enpoints &lt;br&gt;&lt;/div&gt;&lt;div&gt;ID&#39;ed&lt;/div&gt;" style="rhombus;whiteSpace=wrap;html=1;shadow=0;fontFamily=Helvetica;fontSize=12;align=center;strokeWidth=1;spacing=6;spacingTop=-4;" parent="LNGRzd5pgqN2r4LYpTMb-1" vertex="1">
          <mxGeometry x="560" y="389" width="130" height="110" as="geometry" />
        </mxCell>
        <mxCell id="ck7bENQA2yznrZ6UnM8M-19" style="edgeStyle=orthogonalEdgeStyle;rounded=0;orthogonalLoop=1;jettySize=auto;html=1;exitX=0;exitY=0.5;exitDx=0;exitDy=0;entryX=0;entryY=0.5;entryDx=0;entryDy=0;" parent="LNGRzd5pgqN2r4LYpTMb-1" source="LNGRzd5pgqN2r4LYpTMb-6" target="ck7bENQA2yznrZ6UnM8M-1" edge="1">
          <mxGeometry relative="1" as="geometry">
            <Array as="points">
              <mxPoint x="120" y="445" />
              <mxPoint x="120" y="180" />
            </Array>
          </mxGeometry>
        </mxCell>
        <mxCell id="LNGRzd5pgqN2r4LYpTMb-6" value="Data Collection" style="shape=parallelogram;perimeter=parallelogramPerimeter;whiteSpace=wrap;html=1;fixedSize=1;" parent="LNGRzd5pgqN2r4LYpTMb-1" vertex="1">
          <mxGeometry x="255" y="414" width="120" height="60" as="geometry" />
        </mxCell>
        <mxCell id="LNGRzd5pgqN2r4LYpTMb-9" value="&lt;h1&gt;Malware - Recover&lt;/h1&gt;&lt;h1&gt;&lt;br&gt;&lt;/h1&gt;" style="text;html=1;strokeColor=none;fillColor=none;spacing=5;spacingTop=-20;whiteSpace=wrap;overflow=hidden;rounded=0;" parent="LNGRzd5pgqN2r4LYpTMb-1" vertex="1">
          <mxGeometry x="10" y="10" width="260" height="40" as="geometry" />
        </mxCell>
        <mxCell id="LNGRzd5pgqN2r4LYpTMb-10" value="&lt;div&gt;Next&lt;/div&gt;(Post Incident)" style="shape=step;perimeter=stepPerimeter;whiteSpace=wrap;html=1;fixedSize=1;" parent="LNGRzd5pgqN2r4LYpTMb-1" vertex="1">
          <mxGeometry x="955" y="605" width="120" height="40" as="geometry" />
        </mxCell>
        <mxCell id="ck7bENQA2yznrZ6UnM8M-13" style="edgeStyle=orthogonalEdgeStyle;rounded=0;orthogonalLoop=1;jettySize=auto;html=1;exitX=1;exitY=0.5;exitDx=0;exitDy=0;entryX=0.5;entryY=0;entryDx=0;entryDy=0;" parent="LNGRzd5pgqN2r4LYpTMb-1" source="LNGRzd5pgqN2r4LYpTMb-11" target="ck7bENQA2yznrZ6UnM8M-1" edge="1">
          <mxGeometry relative="1" as="geometry" />
        </mxCell>
        <mxCell id="LNGRzd5pgqN2r4LYpTMb-11" value="&lt;div&gt;Previous&lt;/div&gt;(Cont./Erad.)" style="shape=step;perimeter=stepPerimeter;whiteSpace=wrap;html=1;fixedSize=1;" parent="LNGRzd5pgqN2r4LYpTMb-1" vertex="1">
          <mxGeometry x="24" y="60" width="120" height="40" as="geometry" />
        </mxCell>
        <mxCell id="ck7bENQA2yznrZ6UnM8M-17" style="edgeStyle=orthogonalEdgeStyle;rounded=0;orthogonalLoop=1;jettySize=auto;html=1;exitX=1;exitY=0.5;exitDx=0;exitDy=0;entryX=0;entryY=0.5;entryDx=0;entryDy=0;" parent="LNGRzd5pgqN2r4LYpTMb-1" source="LNGRzd5pgqN2r4LYpTMb-12" target="ck7bENQA2yznrZ6UnM8M-11" edge="1">
          <mxGeometry relative="1" as="geometry" />
        </mxCell>
        <mxCell id="LNGRzd5pgqN2r4LYpTMb-12" value="Patch&lt;br&gt;Vulnerability" style="whiteSpace=wrap;html=1;" parent="LNGRzd5pgqN2r4LYpTMb-1" vertex="1">
          <mxGeometry x="560" y="150" width="120" height="60" as="geometry" />
        </mxCell>
        <mxCell id="LNGRzd5pgqN2r4LYpTMb-13" value="" style="endArrow=classic;html=1;entryX=1;entryY=0.5;entryDx=0;entryDy=0;exitX=0;exitY=0.5;exitDx=0;exitDy=0;" parent="LNGRzd5pgqN2r4LYpTMb-1" source="LNGRzd5pgqN2r4LYpTMb-3" target="LNGRzd5pgqN2r4LYpTMb-6" edge="1">
          <mxGeometry width="50" height="50" relative="1" as="geometry">
            <mxPoint x="295" y="715" as="sourcePoint" />
            <mxPoint x="225" y="475" as="targetPoint" />
            <Array as="points">
              <mxPoint x="365" y="444" />
            </Array>
          </mxGeometry>
        </mxCell>
        <mxCell id="LNGRzd5pgqN2r4LYpTMb-14" value="&lt;div&gt;No&lt;/div&gt;" style="edgeLabel;html=1;align=center;verticalAlign=middle;resizable=0;points=[];" parent="LNGRzd5pgqN2r4LYpTMb-13" vertex="1" connectable="0">
          <mxGeometry x="-0.2273" y="-1" relative="1" as="geometry">
            <mxPoint as="offset" />
          </mxGeometry>
        </mxCell>
        <mxCell id="LNGRzd5pgqN2r4LYpTMb-16" value="&lt;div align=&quot;left&quot;&gt;&lt;ul&gt;&lt;li&gt;Determine which of the following &lt;br&gt;can stay to prevent infection &lt;br&gt;vs which need to be removed &lt;br&gt;to restore functionality&lt;/li&gt;&lt;ul&gt;&lt;li&gt;EDR Policies&lt;/li&gt;&lt;li&gt;Firewal Rules&lt;/li&gt;&lt;li&gt;Proxy Block&lt;/li&gt;&lt;li&gt;DNS Sinkhole&lt;/li&gt;&lt;li&gt;etc.&lt;br&gt;&lt;/li&gt;&lt;/ul&gt;&lt;/ul&gt;&lt;/div&gt;" style="text;html=1;resizable=0;autosize=1;align=center;verticalAlign=middle;points=[];fillColor=none;strokeColor=none;rounded=0;" parent="LNGRzd5pgqN2r4LYpTMb-1" vertex="1">
          <mxGeometry x="740" y="210" width="230" height="160" as="geometry" />
        </mxCell>
        <mxCell id="LNGRzd5pgqN2r4LYpTMb-17" value="&lt;div align=&quot;left&quot;&gt;&lt;ul&gt;&lt;li&gt;List systems that haven&#39;t been restored&lt;/li&gt;&lt;/ul&gt;&lt;/div&gt;" style="text;html=1;resizable=0;autosize=1;align=center;verticalAlign=middle;points=[];fillColor=none;strokeColor=none;rounded=0;" parent="LNGRzd5pgqN2r4LYpTMb-1" vertex="1">
          <mxGeometry x="220" y="474" width="260" height="40" as="geometry" />
        </mxCell>
        <mxCell id="ck7bENQA2yznrZ6UnM8M-6" value="" style="edgeStyle=orthogonalEdgeStyle;rounded=0;orthogonalLoop=1;jettySize=auto;html=1;" parent="LNGRzd5pgqN2r4LYpTMb-1" source="hegpyp0vMBPZVfT3K9KV-0" target="hegpyp0vMBPZVfT3K9KV-1" edge="1">
          <mxGeometry relative="1" as="geometry" />
        </mxCell>
        <mxCell id="ck7bENQA2yznrZ6UnM8M-7" value="No" style="edgeLabel;html=1;align=center;verticalAlign=middle;resizable=0;points=[];" parent="ck7bENQA2yznrZ6UnM8M-6" vertex="1" connectable="0">
          <mxGeometry x="-0.1385" relative="1" as="geometry">
            <mxPoint as="offset" />
          </mxGeometry>
        </mxCell>
        <mxCell id="ck7bENQA2yznrZ6UnM8M-9" style="edgeStyle=orthogonalEdgeStyle;rounded=0;orthogonalLoop=1;jettySize=auto;html=1;exitX=1;exitY=0.5;exitDx=0;exitDy=0;entryX=0;entryY=0.5;entryDx=0;entryDy=0;" parent="LNGRzd5pgqN2r4LYpTMb-1" source="hegpyp0vMBPZVfT3K9KV-0" target="LNGRzd5pgqN2r4LYpTMb-10" edge="1">
          <mxGeometry relative="1" as="geometry" />
        </mxCell>
        <mxCell id="ck7bENQA2yznrZ6UnM8M-10" value="Yes" style="edgeLabel;html=1;align=center;verticalAlign=middle;resizable=0;points=[];" parent="ck7bENQA2yznrZ6UnM8M-9" vertex="1" connectable="0">
          <mxGeometry x="-0.6262" relative="1" as="geometry">
            <mxPoint as="offset" />
          </mxGeometry>
        </mxCell>
        <mxCell id="hegpyp0vMBPZVfT3K9KV-0" value="&lt;div&gt;Was Malware&lt;/div&gt;&lt;div&gt;Known&lt;/div&gt;&lt;div&gt;Before&lt;br&gt;&lt;/div&gt;" style="rhombus;whiteSpace=wrap;html=1;shadow=0;fontFamily=Helvetica;fontSize=12;align=center;strokeWidth=1;spacing=6;spacingTop=-4;" parent="LNGRzd5pgqN2r4LYpTMb-1" vertex="1">
          <mxGeometry x="560" y="570" width="130" height="110" as="geometry" />
        </mxCell>
        <mxCell id="ck7bENQA2yznrZ6UnM8M-4" style="edgeStyle=orthogonalEdgeStyle;rounded=0;orthogonalLoop=1;jettySize=auto;html=1;exitX=1;exitY=0.5;exitDx=0;exitDy=0;" parent="LNGRzd5pgqN2r4LYpTMb-1" source="hegpyp0vMBPZVfT3K9KV-1" target="LNGRzd5pgqN2r4LYpTMb-10" edge="1">
          <mxGeometry relative="1" as="geometry" />
        </mxCell>
        <mxCell id="hegpyp0vMBPZVfT3K9KV-1" value="&lt;div&gt;Submit&lt;/div&gt;&lt;div&gt;IOCs to&amp;nbsp;&lt;/div&gt;&lt;div&gt;3rd Parties&lt;br&gt;&lt;/div&gt;" style="whiteSpace=wrap;html=1;" parent="LNGRzd5pgqN2r4LYpTMb-1" vertex="1">
          <mxGeometry x="565" y="751" width="120" height="60" as="geometry" />
        </mxCell>
        <mxCell id="ck7bENQA2yznrZ6UnM8M-0" value="&lt;div align=&quot;left&quot;&gt;&lt;ul&gt;&lt;li&gt;In isolated env&lt;/li&gt;&lt;li&gt;Install &lt;br&gt;&lt;/li&gt;&lt;ul&gt;&lt;li&gt;Supported OS&lt;/li&gt;&lt;li&gt;Security solution&lt;/li&gt;&lt;li&gt;Install up to date Apps&lt;/li&gt;&lt;/ul&gt;&lt;li&gt;Restore clean data&lt;br&gt;&lt;/li&gt;&lt;/ul&gt;&lt;/div&gt;" style="text;html=1;resizable=0;autosize=1;align=center;verticalAlign=middle;points=[];fillColor=none;strokeColor=none;rounded=0;" parent="LNGRzd5pgqN2r4LYpTMb-1" vertex="1">
          <mxGeometry x="115" y="210" width="210" height="110" as="geometry" />
        </mxCell>
        <mxCell id="ck7bENQA2yznrZ6UnM8M-14" value="" style="edgeStyle=orthogonalEdgeStyle;rounded=0;orthogonalLoop=1;jettySize=auto;html=1;" parent="LNGRzd5pgqN2r4LYpTMb-1" source="ck7bENQA2yznrZ6UnM8M-1" target="ck7bENQA2yznrZ6UnM8M-3" edge="1">
          <mxGeometry relative="1" as="geometry" />
        </mxCell>
        <mxCell id="ck7bENQA2yznrZ6UnM8M-1" value="&lt;div&gt;Rebuild &lt;br&gt;&lt;/div&gt;&lt;div&gt;Systems&lt;/div&gt;" style="whiteSpace=wrap;html=1;" parent="LNGRzd5pgqN2r4LYpTMb-1" vertex="1">
          <mxGeometry x="160" y="150" width="120" height="60" as="geometry" />
        </mxCell>
        <mxCell id="ck7bENQA2yznrZ6UnM8M-2" value="&lt;div align=&quot;left&quot;&gt;&lt;ul&gt;&lt;li&gt;External&lt;/li&gt;&lt;li&gt;If possible&lt;br&gt;&lt;/li&gt;&lt;ul&gt;&lt;li&gt;Authenticated&lt;br&gt;&lt;/li&gt;&lt;li&gt;Agent base scan&lt;br&gt;&lt;/li&gt;&lt;/ul&gt;&lt;/ul&gt;&lt;/div&gt;" style="text;html=1;resizable=0;autosize=1;align=center;verticalAlign=middle;points=[];fillColor=none;strokeColor=none;rounded=0;" parent="LNGRzd5pgqN2r4LYpTMb-1" vertex="1">
          <mxGeometry x="330" y="210" width="180" height="90" as="geometry" />
        </mxCell>
        <mxCell id="ck7bENQA2yznrZ6UnM8M-16" style="edgeStyle=orthogonalEdgeStyle;rounded=0;orthogonalLoop=1;jettySize=auto;html=1;exitX=1;exitY=0.5;exitDx=0;exitDy=0;entryX=0;entryY=0.5;entryDx=0;entryDy=0;" parent="LNGRzd5pgqN2r4LYpTMb-1" source="ck7bENQA2yznrZ6UnM8M-3" target="LNGRzd5pgqN2r4LYpTMb-12" edge="1">
          <mxGeometry relative="1" as="geometry" />
        </mxCell>
        <mxCell id="ck7bENQA2yznrZ6UnM8M-3" value="&lt;div&gt;Vulnerability&lt;/div&gt;&lt;div&gt;Scan&lt;br&gt;&lt;/div&gt;" style="whiteSpace=wrap;html=1;" parent="LNGRzd5pgqN2r4LYpTMb-1" vertex="1">
          <mxGeometry x="360" y="150" width="120" height="60" as="geometry" />
        </mxCell>
        <mxCell id="ck7bENQA2yznrZ6UnM8M-18" style="edgeStyle=orthogonalEdgeStyle;rounded=0;orthogonalLoop=1;jettySize=auto;html=1;exitX=1;exitY=0.5;exitDx=0;exitDy=0;entryX=1;entryY=0.5;entryDx=0;entryDy=0;" parent="LNGRzd5pgqN2r4LYpTMb-1" source="ck7bENQA2yznrZ6UnM8M-11" target="ZjZPuJ92APbmLkMjYDRT-0" edge="1">
          <mxGeometry relative="1" as="geometry">
            <mxPoint x="980" y="180" as="targetPoint" />
            <Array as="points">
              <mxPoint x="1040" y="180" />
              <mxPoint x="1040" y="445" />
            </Array>
          </mxGeometry>
        </mxCell>
        <mxCell id="ck7bENQA2yznrZ6UnM8M-11" value="&lt;div&gt;Update&lt;/div&gt;&lt;div&gt;Defenses&lt;/div&gt;" style="whiteSpace=wrap;html=1;" parent="LNGRzd5pgqN2r4LYpTMb-1" vertex="1">
          <mxGeometry x="790" y="150" width="120" height="60" as="geometry" />
        </mxCell>
        <mxCell id="ck7bENQA2yznrZ6UnM8M-12" value="&lt;div align=&quot;left&quot;&gt;&lt;ul&gt;&lt;li&gt;Lift containment&lt;/li&gt;&lt;li&gt;Move host to production VLAN&lt;/li&gt;&lt;li&gt;Enable switch port&lt;/li&gt;&lt;li&gt;Enable / Create virtual network interface&lt;br&gt;&lt;/li&gt;&lt;/ul&gt;&lt;/div&gt;" style="text;html=1;resizable=0;autosize=1;align=center;verticalAlign=middle;points=[];fillColor=none;strokeColor=none;rounded=0;" parent="LNGRzd5pgqN2r4LYpTMb-1" vertex="1">
          <mxGeometry x="750" y="474" width="270" height="90" as="geometry" />
        </mxCell>
        <mxCell id="gJsGpBBSAAJUGw66HAuJ-3" style="edgeStyle=orthogonalEdgeStyle;rounded=0;orthogonalLoop=1;jettySize=auto;html=1;exitX=1;exitY=0.5;exitDx=0;exitDy=0;entryX=0;entryY=0.5;entryDx=0;entryDy=0;" parent="LNGRzd5pgqN2r4LYpTMb-1" source="gJsGpBBSAAJUGw66HAuJ-0" target="hegpyp0vMBPZVfT3K9KV-0" edge="1">
          <mxGeometry relative="1" as="geometry" />
        </mxCell>
        <mxCell id="gJsGpBBSAAJUGw66HAuJ-0" value="&lt;div&gt;Validate &lt;br&gt;&lt;/div&gt;&lt;div&gt;Countermeasures&lt;br&gt;&lt;/div&gt;" style="whiteSpace=wrap;html=1;" parent="LNGRzd5pgqN2r4LYpTMb-1" vertex="1">
          <mxGeometry x="255" y="595" width="120" height="60" as="geometry" />
        </mxCell>
        <mxCell id="gJsGpBBSAAJUGw66HAuJ-1" value="&lt;div align=&quot;left&quot;&gt;&lt;ul&gt;&lt;li&gt;Determine of legitimate elements are blocked by&lt;/li&gt;&lt;ul&gt;&lt;li&gt;AV / EDR&lt;/li&gt;&lt;li&gt;IPS&lt;br&gt;&lt;/li&gt;&lt;li&gt;Proxy&lt;/li&gt;&lt;li&gt;Firewall&lt;/li&gt;&lt;li&gt;DNS&lt;/li&gt;&lt;/ul&gt;&lt;li&gt;Remediate any problem identified&lt;br&gt;&lt;/li&gt;&lt;/ul&gt;&lt;/div&gt;" style="text;html=1;resizable=0;autosize=1;align=center;verticalAlign=middle;points=[];fillColor=none;strokeColor=none;rounded=0;" parent="LNGRzd5pgqN2r4LYpTMb-1" vertex="1">
          <mxGeometry x="200" y="645" width="310" height="130" as="geometry" />
        </mxCell>
        <mxCell id="aDMrxfti0TpC0aq8InMb-0" value="MR1" style="whiteSpace=wrap;html=1;aspect=fixed;fillColor=#E6E6E6;rotation=0;" parent="LNGRzd5pgqN2r4LYpTMb-1" vertex="1">
          <mxGeometry x="160" y="120" width="30" height="30" as="geometry" />
        </mxCell>
        <mxCell id="aDMrxfti0TpC0aq8InMb-1" value="MR2" style="whiteSpace=wrap;html=1;aspect=fixed;fillColor=#E6E6E6;rotation=0;" parent="LNGRzd5pgqN2r4LYpTMb-1" vertex="1">
          <mxGeometry x="360" y="120" width="30" height="30" as="geometry" />
        </mxCell>
        <mxCell id="aDMrxfti0TpC0aq8InMb-2" value="MR3" style="whiteSpace=wrap;html=1;aspect=fixed;fillColor=#E6E6E6;rotation=0;" parent="LNGRzd5pgqN2r4LYpTMb-1" vertex="1">
          <mxGeometry x="560" y="120" width="30" height="30" as="geometry" />
        </mxCell>
        <mxCell id="aDMrxfti0TpC0aq8InMb-3" value="MR4" style="whiteSpace=wrap;html=1;aspect=fixed;fillColor=#E6E6E6;rotation=0;" parent="LNGRzd5pgqN2r4LYpTMb-1" vertex="1">
          <mxGeometry x="790" y="120" width="30" height="30" as="geometry" />
        </mxCell>
        <mxCell id="aDMrxfti0TpC0aq8InMb-4" value="MR8" style="whiteSpace=wrap;html=1;aspect=fixed;fillColor=#E6E6E6;rotation=0;" parent="LNGRzd5pgqN2r4LYpTMb-1" vertex="1">
          <mxGeometry x="255" y="565" width="30" height="30" as="geometry" />
        </mxCell>
        <mxCell id="aDMrxfti0TpC0aq8InMb-5" value="&lt;font style=&quot;font-size: 10px&quot;&gt;MR10&lt;/font&gt;" style="whiteSpace=wrap;html=1;aspect=fixed;fillColor=#E6E6E6;rotation=0;" parent="LNGRzd5pgqN2r4LYpTMb-1" vertex="1">
          <mxGeometry x="565" y="721" width="30" height="30" as="geometry" />
        </mxCell>
        <mxCell id="aDMrxfti0TpC0aq8InMb-6" value="MR7" style="whiteSpace=wrap;html=1;aspect=fixed;fillColor=#E6E6E6;rotation=0;" parent="LNGRzd5pgqN2r4LYpTMb-1" vertex="1">
          <mxGeometry x="276" y="384" width="30" height="30" as="geometry" />
        </mxCell>
        <mxCell id="ZjZPuJ92APbmLkMjYDRT-2" value="" style="edgeStyle=orthogonalEdgeStyle;rounded=0;orthogonalLoop=1;jettySize=auto;html=1;exitX=0;exitY=0.5;exitDx=0;exitDy=0;" parent="LNGRzd5pgqN2r4LYpTMb-1" source="ZjZPuJ92APbmLkMjYDRT-0" target="LNGRzd5pgqN2r4LYpTMb-3" edge="1">
          <mxGeometry relative="1" as="geometry" />
        </mxCell>
        <mxCell id="ZjZPuJ92APbmLkMjYDRT-0" value="&lt;div&gt;Restore&lt;/div&gt;&lt;div&gt;Service&lt;br&gt;&lt;/div&gt;" style="whiteSpace=wrap;html=1;" parent="LNGRzd5pgqN2r4LYpTMb-1" vertex="1">
          <mxGeometry x="790" y="414" width="120" height="60" as="geometry" />
        </mxCell>
        <mxCell id="ZjZPuJ92APbmLkMjYDRT-1" value="MR5" style="whiteSpace=wrap;html=1;aspect=fixed;fillColor=#E6E6E6;rotation=0;" parent="LNGRzd5pgqN2r4LYpTMb-1" vertex="1">
          <mxGeometry x="790" y="384" width="30" height="30" as="geometry" />
        </mxCell>
        <mxCell id="ZjZPuJ92APbmLkMjYDRT-3" value="&lt;div align=&quot;left&quot;&gt;&lt;ul&gt;&lt;li&gt;All Critical &amp;amp; High Vulnerability &lt;br&gt;must be patch&lt;/li&gt;&lt;ul&gt;&lt;li&gt;Operating Systems&lt;/li&gt;&lt;li&gt;Applications&lt;/li&gt;&lt;/ul&gt;&lt;/ul&gt;&lt;/div&gt;" style="text;html=1;resizable=0;autosize=1;align=center;verticalAlign=middle;points=[];fillColor=none;strokeColor=none;rounded=0;" parent="LNGRzd5pgqN2r4LYpTMb-1" vertex="1">
          <mxGeometry x="520" y="210" width="220" height="90" as="geometry" />
        </mxCell>
      </root>
    </mxGraphModel>
  </diagram>
  <diagram name="Post Incident" id="xqQ1b7wEquAndxs3HkWn">
    <mxGraphModel dx="1186" dy="767" grid="1" gridSize="10" guides="1" tooltips="1" connect="1" arrows="1" fold="1" page="1" pageScale="1" pageWidth="1169" pageHeight="827" math="0" shadow="0">
      <root>
        <mxCell id="Ug9snUD4bwD4gMwMyyKg-0" />
        <mxCell id="Ug9snUD4bwD4gMwMyyKg-1" parent="Ug9snUD4bwD4gMwMyyKg-0" />
        <mxCell id="uViRlMhfUyx1QLxJ4RVd-0" value="&lt;div style=&quot;font-size: 12px&quot;&gt;MP7&lt;/div&gt;" style="whiteSpace=wrap;html=1;aspect=fixed;fillColor=#E6E6E6;rotation=319;fontSize=12;" parent="Ug9snUD4bwD4gMwMyyKg-1" vertex="1">
          <mxGeometry x="184" y="565" width="30" height="30" as="geometry" />
        </mxCell>
        <mxCell id="Ug9snUD4bwD4gMwMyyKg-2" style="edgeStyle=orthogonalEdgeStyle;rounded=0;orthogonalLoop=1;jettySize=auto;html=1;exitX=0.5;exitY=1;exitDx=0;exitDy=0;" parent="Ug9snUD4bwD4gMwMyyKg-1" edge="1">
          <mxGeometry relative="1" as="geometry">
            <mxPoint x="80" y="100" as="sourcePoint" />
            <mxPoint x="80" y="100" as="targetPoint" />
          </mxGeometry>
        </mxCell>
        <mxCell id="Ug9snUD4bwD4gMwMyyKg-3" value="&lt;h1&gt;Malware - Post Incident&lt;br&gt;&lt;/h1&gt;" style="text;html=1;strokeColor=none;fillColor=none;spacing=5;spacingTop=-20;whiteSpace=wrap;overflow=hidden;rounded=0;" parent="Ug9snUD4bwD4gMwMyyKg-1" vertex="1">
          <mxGeometry x="10" y="10" width="390" height="40" as="geometry" />
        </mxCell>
        <mxCell id="CMKqRA76MM4g_iPXR4II-1" style="edgeStyle=orthogonalEdgeStyle;rounded=0;orthogonalLoop=1;jettySize=auto;html=1;exitX=1;exitY=0.5;exitDx=0;exitDy=0;entryX=1;entryY=0.5;entryDx=0;entryDy=0;" parent="Ug9snUD4bwD4gMwMyyKg-1" source="Ug9snUD4bwD4gMwMyyKg-4" target="CMKqRA76MM4g_iPXR4II-0" edge="1">
          <mxGeometry relative="1" as="geometry">
            <Array as="points">
              <mxPoint x="820" y="190" />
              <mxPoint x="820" y="430" />
            </Array>
          </mxGeometry>
        </mxCell>
        <mxCell id="Ug9snUD4bwD4gMwMyyKg-4" value="Review Defensive Posture" style="whiteSpace=wrap;html=1;" parent="Ug9snUD4bwD4gMwMyyKg-1" vertex="1">
          <mxGeometry x="620" y="160" width="120" height="60" as="geometry" />
        </mxCell>
        <mxCell id="Ug9snUD4bwD4gMwMyyKg-6" value="&lt;div&gt;Stop&lt;/div&gt;" style="ellipse;whiteSpace=wrap;html=1;" parent="Ug9snUD4bwD4gMwMyyKg-1" vertex="1">
          <mxGeometry x="760" y="600" width="120" height="40" as="geometry" />
        </mxCell>
        <mxCell id="Ug9snUD4bwD4gMwMyyKg-7" style="edgeStyle=orthogonalEdgeStyle;rounded=0;orthogonalLoop=1;jettySize=auto;html=1;exitX=1;exitY=0.5;exitDx=0;exitDy=0;" parent="Ug9snUD4bwD4gMwMyyKg-1" source="Ug9snUD4bwD4gMwMyyKg-8" target="Ug9snUD4bwD4gMwMyyKg-4" edge="1">
          <mxGeometry relative="1" as="geometry" />
        </mxCell>
        <mxCell id="Ug9snUD4bwD4gMwMyyKg-8" value="&lt;div&gt;Update Policies &amp;amp;&lt;/div&gt;&lt;div&gt;Procedures&lt;br&gt;&lt;/div&gt;" style="shape=document;whiteSpace=wrap;html=1;boundedLbl=1;rounded=0;sketch=0;" parent="Ug9snUD4bwD4gMwMyyKg-1" vertex="1">
          <mxGeometry x="400" y="160" width="120" height="60" as="geometry" />
        </mxCell>
        <mxCell id="Ug9snUD4bwD4gMwMyyKg-9" value="" style="endArrow=classic;html=1;entryX=0.5;entryY=0;entryDx=0;entryDy=0;exitX=1;exitY=0.5;exitDx=0;exitDy=0;rounded=0;" parent="Ug9snUD4bwD4gMwMyyKg-1" target="Ug9snUD4bwD4gMwMyyKg-12" edge="1">
          <mxGeometry width="50" height="50" relative="1" as="geometry">
            <mxPoint x="150" y="90" as="sourcePoint" />
            <mxPoint x="170" y="120" as="targetPoint" />
            <Array as="points">
              <mxPoint x="244" y="90" />
            </Array>
          </mxGeometry>
        </mxCell>
        <mxCell id="Ug9snUD4bwD4gMwMyyKg-10" value="&lt;div&gt;Previous&lt;/div&gt;(Detect)" style="shape=step;perimeter=stepPerimeter;whiteSpace=wrap;html=1;fixedSize=1;" parent="Ug9snUD4bwD4gMwMyyKg-1" vertex="1">
          <mxGeometry x="34" y="70" width="120" height="40" as="geometry" />
        </mxCell>
        <mxCell id="Ug9snUD4bwD4gMwMyyKg-11" style="edgeStyle=orthogonalEdgeStyle;rounded=0;orthogonalLoop=1;jettySize=auto;html=1;exitX=1;exitY=0.5;exitDx=0;exitDy=0;entryX=0;entryY=0.5;entryDx=0;entryDy=0;" parent="Ug9snUD4bwD4gMwMyyKg-1" source="Ug9snUD4bwD4gMwMyyKg-12" target="Ug9snUD4bwD4gMwMyyKg-8" edge="1">
          <mxGeometry relative="1" as="geometry" />
        </mxCell>
        <mxCell id="Ug9snUD4bwD4gMwMyyKg-12" value="&lt;div&gt;Incident&lt;/div&gt;&lt;div&gt;Review&lt;br&gt;&lt;/div&gt;" style="whiteSpace=wrap;html=1;" parent="Ug9snUD4bwD4gMwMyyKg-1" vertex="1">
          <mxGeometry x="184" y="160" width="120" height="60" as="geometry" />
        </mxCell>
        <mxCell id="Ug9snUD4bwD4gMwMyyKg-13" value="&lt;div align=&quot;left&quot;&gt;&lt;ul&gt;&lt;li&gt;What Worked&lt;/li&gt;&lt;li&gt;What Didn&#39;t Work&lt;br&gt;&lt;/li&gt;&lt;/ul&gt;&lt;/div&gt;" style="text;html=1;resizable=0;autosize=1;align=center;verticalAlign=middle;points=[];fillColor=none;strokeColor=none;rounded=0;" parent="Ug9snUD4bwD4gMwMyyKg-1" vertex="1">
          <mxGeometry x="154" y="220" width="150" height="60" as="geometry" />
        </mxCell>
        <mxCell id="Ug9snUD4bwD4gMwMyyKg-14" value="&lt;div align=&quot;left&quot;&gt;&lt;ul&gt;&lt;li&gt;Documentations:&lt;/li&gt;&lt;ul&gt;&lt;li&gt;Policies&lt;/li&gt;&lt;li&gt;Playbooks&lt;/li&gt;&lt;li&gt;Runbooks&lt;br&gt;&lt;/li&gt;&lt;li&gt;Procedures&lt;/li&gt;&lt;li&gt;etc.&lt;/li&gt;&lt;/ul&gt;&lt;li&gt;Detection Rules:&lt;/li&gt;&lt;ul&gt;&lt;li&gt;SIEM&lt;/li&gt;&lt;li&gt;AV / EDR&lt;/li&gt;&lt;li&gt;Other security solution&lt;br&gt;&lt;/li&gt;&lt;/ul&gt;&lt;/ul&gt;&lt;/div&gt;" style="text;html=1;resizable=0;autosize=1;align=center;verticalAlign=middle;points=[];fillColor=none;strokeColor=none;rounded=0;" parent="Ug9snUD4bwD4gMwMyyKg-1" vertex="1">
          <mxGeometry x="370" y="220" width="210" height="170" as="geometry" />
        </mxCell>
        <mxCell id="Ug9snUD4bwD4gMwMyyKg-15" value="&lt;div align=&quot;left&quot;&gt;&lt;ul&gt;&lt;li&gt;Schedule review of newly&lt;br&gt;introduced rules in 6 months&lt;/li&gt;&lt;li&gt;Are the following still applicable&lt;br&gt;&lt;/li&gt;&lt;ul&gt;&lt;li&gt;AV / EDR custom sigs&lt;br&gt;&lt;/li&gt;&lt;li&gt;IPS sigs&lt;/li&gt;&lt;li&gt;Etc.&lt;br&gt;&lt;/li&gt;&lt;/ul&gt;&lt;/ul&gt;&lt;/div&gt;" style="text;html=1;resizable=0;autosize=1;align=center;verticalAlign=middle;points=[];fillColor=none;strokeColor=none;rounded=0;" parent="Ug9snUD4bwD4gMwMyyKg-1" vertex="1">
          <mxGeometry x="585" y="220" width="220" height="110" as="geometry" />
        </mxCell>
        <mxCell id="CMKqRA76MM4g_iPXR4II-4" value="" style="edgeStyle=orthogonalEdgeStyle;rounded=0;orthogonalLoop=1;jettySize=auto;html=1;" parent="Ug9snUD4bwD4gMwMyyKg-1" source="CMKqRA76MM4g_iPXR4II-0" target="CMKqRA76MM4g_iPXR4II-3" edge="1">
          <mxGeometry relative="1" as="geometry" />
        </mxCell>
        <mxCell id="CMKqRA76MM4g_iPXR4II-0" value="&lt;div&gt;Update / Upgrade&lt;br&gt;Defences&lt;br&gt;&lt;/div&gt;" style="whiteSpace=wrap;html=1;" parent="Ug9snUD4bwD4gMwMyyKg-1" vertex="1">
          <mxGeometry x="620" y="400" width="120" height="60" as="geometry" />
        </mxCell>
        <mxCell id="CMKqRA76MM4g_iPXR4II-2" value="&lt;div&gt;Modify&lt;/div&gt;&lt;div&gt;Base Images&lt;br&gt;&lt;/div&gt;" style="whiteSpace=wrap;html=1;" parent="Ug9snUD4bwD4gMwMyyKg-1" vertex="1">
          <mxGeometry x="184" y="400" width="120" height="60" as="geometry" />
        </mxCell>
        <mxCell id="CMKqRA76MM4g_iPXR4II-5" value="" style="edgeStyle=orthogonalEdgeStyle;rounded=0;orthogonalLoop=1;jettySize=auto;html=1;" parent="Ug9snUD4bwD4gMwMyyKg-1" source="CMKqRA76MM4g_iPXR4II-3" target="CMKqRA76MM4g_iPXR4II-2" edge="1">
          <mxGeometry relative="1" as="geometry" />
        </mxCell>
        <mxCell id="CMKqRA76MM4g_iPXR4II-3" value="Build New&lt;br&gt;Detections" style="whiteSpace=wrap;html=1;" parent="Ug9snUD4bwD4gMwMyyKg-1" vertex="1">
          <mxGeometry x="400" y="400" width="120" height="60" as="geometry" />
        </mxCell>
        <mxCell id="CMKqRA76MM4g_iPXR4II-9" style="edgeStyle=orthogonalEdgeStyle;rounded=0;orthogonalLoop=1;jettySize=auto;html=1;entryX=0;entryY=0.5;entryDx=0;entryDy=0;" parent="Ug9snUD4bwD4gMwMyyKg-1" source="CMKqRA76MM4g_iPXR4II-7" target="Ug9snUD4bwD4gMwMyyKg-6" edge="1">
          <mxGeometry relative="1" as="geometry" />
        </mxCell>
        <mxCell id="CMKqRA76MM4g_iPXR4II-7" value="&lt;div&gt;Calculate&lt;/div&gt;&lt;div&gt;Incident&#39;s&lt;/div&gt;&lt;div&gt;Cost&lt;br&gt;&lt;/div&gt;" style="whiteSpace=wrap;html=1;" parent="Ug9snUD4bwD4gMwMyyKg-1" vertex="1">
          <mxGeometry x="400" y="590" width="120" height="60" as="geometry" />
        </mxCell>
        <mxCell id="PM7nJjFDEO_FHybtfhwO-3" value="" style="edgeStyle=orthogonalEdgeStyle;rounded=0;orthogonalLoop=1;jettySize=auto;html=1;" parent="Ug9snUD4bwD4gMwMyyKg-1" source="PM7nJjFDEO_FHybtfhwO-0" target="CMKqRA76MM4g_iPXR4II-7" edge="1">
          <mxGeometry relative="1" as="geometry" />
        </mxCell>
        <mxCell id="PM7nJjFDEO_FHybtfhwO-4" value="No" style="edgeLabel;html=1;align=center;verticalAlign=middle;resizable=0;points=[];" parent="PM7nJjFDEO_FHybtfhwO-3" vertex="1" connectable="0">
          <mxGeometry x="-0.2083" y="-2" relative="1" as="geometry">
            <mxPoint as="offset" />
          </mxGeometry>
        </mxCell>
        <mxCell id="PM7nJjFDEO_FHybtfhwO-5" value="Yes" style="edgeStyle=orthogonalEdgeStyle;rounded=0;orthogonalLoop=1;jettySize=auto;html=1;" parent="Ug9snUD4bwD4gMwMyyKg-1" source="PM7nJjFDEO_FHybtfhwO-0" target="PM7nJjFDEO_FHybtfhwO-2" edge="1">
          <mxGeometry relative="1" as="geometry" />
        </mxCell>
        <mxCell id="PM7nJjFDEO_FHybtfhwO-0" value="&lt;div&gt;Incident &lt;br&gt;&lt;/div&gt;&lt;div&gt;Cause&lt;/div&gt;&lt;div&gt;by Human&lt;br&gt;&lt;/div&gt;" style="rhombus;whiteSpace=wrap;html=1;shadow=0;fontFamily=Helvetica;fontSize=12;align=center;strokeWidth=1;spacing=6;spacingTop=-4;" parent="Ug9snUD4bwD4gMwMyyKg-1" vertex="1">
          <mxGeometry x="174" y="565" width="130" height="110" as="geometry" />
        </mxCell>
        <mxCell id="PM7nJjFDEO_FHybtfhwO-1" style="edgeStyle=orthogonalEdgeStyle;rounded=0;orthogonalLoop=1;jettySize=auto;html=1;exitX=0;exitY=0.5;exitDx=0;exitDy=0;entryX=0;entryY=0.5;entryDx=0;entryDy=0;" parent="Ug9snUD4bwD4gMwMyyKg-1" source="CMKqRA76MM4g_iPXR4II-2" target="PM7nJjFDEO_FHybtfhwO-0" edge="1">
          <mxGeometry relative="1" as="geometry">
            <mxPoint x="184" y="430" as="sourcePoint" />
            <mxPoint x="400" y="600" as="targetPoint" />
            <Array as="points">
              <mxPoint x="130" y="430" />
              <mxPoint x="130" y="620" />
            </Array>
          </mxGeometry>
        </mxCell>
        <mxCell id="PM7nJjFDEO_FHybtfhwO-6" style="edgeStyle=orthogonalEdgeStyle;rounded=0;orthogonalLoop=1;jettySize=auto;html=1;exitX=1;exitY=0.5;exitDx=0;exitDy=0;entryX=0.5;entryY=1;entryDx=0;entryDy=0;" parent="Ug9snUD4bwD4gMwMyyKg-1" source="PM7nJjFDEO_FHybtfhwO-2" target="CMKqRA76MM4g_iPXR4II-7" edge="1">
          <mxGeometry relative="1" as="geometry" />
        </mxCell>
        <mxCell id="PM7nJjFDEO_FHybtfhwO-2" value="&lt;div&gt;User Awareness&lt;/div&gt;&lt;div&gt;Training&lt;br&gt;&lt;/div&gt;" style="whiteSpace=wrap;html=1;" parent="Ug9snUD4bwD4gMwMyyKg-1" vertex="1">
          <mxGeometry x="179" y="740" width="120" height="60" as="geometry" />
        </mxCell>
        <mxCell id="2Wb_2L_ytaiR7L80J-nI-0" value="MP1" style="whiteSpace=wrap;html=1;aspect=fixed;fillColor=#E6E6E6;rotation=0;" parent="Ug9snUD4bwD4gMwMyyKg-1" vertex="1">
          <mxGeometry x="184" y="130" width="30" height="30" as="geometry" />
        </mxCell>
        <mxCell id="2Wb_2L_ytaiR7L80J-nI-1" value="MP2" style="whiteSpace=wrap;html=1;aspect=fixed;fillColor=#E6E6E6;rotation=0;" parent="Ug9snUD4bwD4gMwMyyKg-1" vertex="1">
          <mxGeometry x="400" y="130" width="30" height="30" as="geometry" />
        </mxCell>
        <mxCell id="2Wb_2L_ytaiR7L80J-nI-2" value="MP3" style="whiteSpace=wrap;html=1;aspect=fixed;fillColor=#E6E6E6;rotation=0;" parent="Ug9snUD4bwD4gMwMyyKg-1" vertex="1">
          <mxGeometry x="620" y="130" width="30" height="30" as="geometry" />
        </mxCell>
        <mxCell id="2Wb_2L_ytaiR7L80J-nI-3" value="MP4" style="whiteSpace=wrap;html=1;aspect=fixed;fillColor=#E6E6E6;rotation=0;" parent="Ug9snUD4bwD4gMwMyyKg-1" vertex="1">
          <mxGeometry x="620" y="370" width="30" height="30" as="geometry" />
        </mxCell>
        <mxCell id="2Wb_2L_ytaiR7L80J-nI-4" value="MP5" style="whiteSpace=wrap;html=1;aspect=fixed;fillColor=#E6E6E6;rotation=0;" parent="Ug9snUD4bwD4gMwMyyKg-1" vertex="1">
          <mxGeometry x="400" y="370" width="30" height="30" as="geometry" />
        </mxCell>
        <mxCell id="2Wb_2L_ytaiR7L80J-nI-5" value="MP6" style="whiteSpace=wrap;html=1;aspect=fixed;fillColor=#E6E6E6;rotation=0;" parent="Ug9snUD4bwD4gMwMyyKg-1" vertex="1">
          <mxGeometry x="184" y="370" width="30" height="30" as="geometry" />
        </mxCell>
        <mxCell id="2Wb_2L_ytaiR7L80J-nI-6" value="MP9" style="whiteSpace=wrap;html=1;aspect=fixed;fillColor=#E6E6E6;rotation=0;" parent="Ug9snUD4bwD4gMwMyyKg-1" vertex="1">
          <mxGeometry x="400" y="560" width="30" height="30" as="geometry" />
        </mxCell>
        <mxCell id="2Wb_2L_ytaiR7L80J-nI-7" value="MP8" style="whiteSpace=wrap;html=1;aspect=fixed;fillColor=#E6E6E6;rotation=0;" parent="Ug9snUD4bwD4gMwMyyKg-1" vertex="1">
          <mxGeometry x="179" y="710" width="30" height="30" as="geometry" />
        </mxCell>
        <mxCell id="7Cgy32BP11NY_mWDeYPs-0" value="&lt;div align=&quot;left&quot;&gt;&lt;ul&gt;&lt;li&gt;Anti-Virus&lt;/li&gt;&lt;ul&gt;&lt;li&gt;Signature&lt;/li&gt;&lt;li&gt;Engine&lt;/li&gt;&lt;/ul&gt;&lt;li&gt;EDR&lt;/li&gt;&lt;ul&gt;&lt;li&gt;Behavior of the malware&lt;/li&gt;&lt;/ul&gt;&lt;li&gt;Anti-Spam / Anti-Phish&lt;/li&gt;&lt;/ul&gt;&lt;/div&gt;" style="text;html=1;resizable=0;autosize=1;align=center;verticalAlign=middle;points=[];fillColor=none;strokeColor=none;rounded=0;" parent="Ug9snUD4bwD4gMwMyyKg-1" vertex="1">
          <mxGeometry x="580" y="460" width="220" height="110" as="geometry" />
        </mxCell>
        <mxCell id="7Cgy32BP11NY_mWDeYPs-1" value="&lt;div align=&quot;left&quot;&gt;&lt;ul&gt;&lt;li&gt;SIEM Rules&lt;/li&gt;&lt;li&gt;Tickets&lt;br&gt;&lt;/li&gt;&lt;/ul&gt;&lt;/div&gt;" style="text;html=1;resizable=0;autosize=1;align=center;verticalAlign=middle;points=[];fillColor=none;strokeColor=none;rounded=0;" parent="Ug9snUD4bwD4gMwMyyKg-1" vertex="1">
          <mxGeometry x="375" y="460" width="120" height="60" as="geometry" />
        </mxCell>
        <mxCell id="7Cgy32BP11NY_mWDeYPs-2" value="&lt;div align=&quot;left&quot;&gt;&lt;ul&gt;&lt;li&gt;Review Hardening Process&lt;/li&gt;&lt;li&gt;Include Patch in OS Images&lt;/li&gt;&lt;li&gt;Upgrade Apps&lt;/li&gt;&lt;li&gt;Patch Apps&lt;/li&gt;&lt;/ul&gt;&lt;/div&gt;" style="text;html=1;resizable=0;autosize=1;align=center;verticalAlign=middle;points=[];fillColor=none;strokeColor=none;rounded=0;" parent="Ug9snUD4bwD4gMwMyyKg-1" vertex="1">
          <mxGeometry x="154" y="460" width="200" height="90" as="geometry" />
        </mxCell>
      </root>
    </mxGraphModel>
  </diagram>
</mxfile>
